<?xml version="1.0" encoding="UTF-8"?> <svg xmlns="http://www.w3.org/2000/svg" width="426" height="512" viewBox="0 0 426 512" fill="none"><path opacity="0.5" fill-rule="evenodd" clip-rule="evenodd" d="M255.588 196.842L298.079 186.251L298.079 10.6418L255.588 0.0515281L213.098 10.6416L213.098 186.251L255.588 196.842Z" fill="url(#paint0_linear_15_812)"></path><path opacity="0.5" fill-rule="evenodd" clip-rule="evenodd" d="M383.059 389.827L425.549 379.236L425.549 203.627L383.059 193.037L340.568 203.627L340.568 379.236L383.059 389.827Z" fill="url(#paint1_linear_15_812)"></path><path opacity="0.5" fill-rule="evenodd" clip-rule="evenodd" d="M170.607 257.728L213.098 247.138L213.098 71.5281L170.607 60.9378L128.117 71.5279L128.117 247.138L170.607 257.728Z" fill="url(#paint2_linear_15_812)"></path><path d="M383.058 450.84L425.549 440.25L425.549 501.017L383.058 511.608L383.058 450.84Z" fill="url(#paint3_linear_15_812)"></path><path d="M340.568 440.25L383.058 450.84L383.058 511.582L340.568 500.992L340.568 440.25Z" fill="url(#paint4_linear_15_812)"></path><rect width="43.7903" height="43.7903" transform="matrix(0.970316 -0.241842 0.970316 0.241842 340.568 440.25)" fill="#92B0FB"></rect><path d="M43.1359 450.837L85.6264 440.246L85.6264 501.013L43.1359 511.604L43.1359 450.837Z" fill="url(#paint5_linear_15_812)"></path><path d="M0.645508 440.246L43.136 450.836L43.136 511.578L0.645507 500.988L0.645508 440.246Z" fill="url(#paint6_linear_15_812)"></path><rect width="43.7903" height="43.7903" transform="matrix(0.970316 -0.241842 0.970316 0.241842 0.645508 440.246)" fill="#92B0FB"></rect><path d="M383.059 329.312L425.549 318.721L425.549 379.489L383.059 390.079L383.059 329.312Z" fill="url(#paint7_linear_15_812)"></path><path d="M340.568 318.721L383.059 329.311L383.059 390.053L340.568 379.463L340.568 318.721Z" fill="url(#paint8_linear_15_812)"></path><rect width="43.7903" height="43.7903" transform="matrix(0.970316 -0.241842 0.970316 0.241842 340.568 318.721)" fill="#92B0FB"></rect><path d="M128.117 450.713L170.607 440.123L170.607 501.137L128.117 511.727L128.117 450.713Z" fill="url(#paint9_linear_15_812)"></path><path d="M85.6264 440.123L128.117 450.713L128.117 511.727L85.6264 501.137L85.6264 440.123Z" fill="url(#paint10_linear_15_812)"></path><rect width="43.7901" height="43.7901" transform="matrix(0.970316 -0.241842 0.970316 0.241842 85.6264 440.123)" fill="#FEDF7D"></rect><path d="M213.097 329.188L255.588 318.598L255.588 379.612L213.097 390.202L213.097 329.188Z" fill="url(#paint11_linear_15_812)"></path><path d="M170.607 318.598L213.097 329.188L213.097 390.202L170.607 379.612L170.607 318.598Z" fill="url(#paint12_linear_15_812)"></path><rect width="43.7901" height="43.7901" transform="matrix(0.970316 -0.241842 0.970316 0.241842 170.607 318.598)" fill="#FEDF7D"></rect><path d="M298.078 268.318L340.568 257.728L340.568 318.742L298.078 329.332L298.078 268.318Z" fill="url(#paint13_linear_15_812)"></path><path d="M255.587 257.728L298.078 268.318L298.078 329.332L255.587 318.742L255.587 257.728Z" fill="url(#paint14_linear_15_812)"></path><rect width="43.7901" height="43.7901" transform="matrix(0.970316 -0.241842 0.970316 0.241842 255.587 257.728)" fill="#FEDF7D"></rect><path d="M298.078 450.836L340.568 440.246L340.568 501.26L298.078 511.85L298.078 450.836Z" fill="url(#paint15_linear_15_812)"></path><path d="M255.587 440.246L298.078 450.836L298.078 511.85L255.587 501.259L255.587 440.246Z" fill="url(#paint16_linear_15_812)"></path><rect width="43.7901" height="43.7901" transform="matrix(0.970316 -0.241842 0.970316 0.241842 255.587 440.246)" fill="#FEDF7D"></rect><path d="M128.117 268.318L170.607 257.728L170.607 318.742L128.117 329.332L128.117 268.318Z" fill="url(#paint17_linear_15_812)"></path><path d="M85.6262 257.728L128.116 268.318L128.116 329.332L85.6262 318.742L85.6262 257.728Z" fill="url(#paint18_linear_15_812)"></path><rect width="43.7901" height="43.7901" transform="matrix(0.970316 -0.241842 0.970316 0.241842 85.6262 257.728)" fill="#9D9D9D"></rect><path d="M298.077 389.822L340.568 379.232L340.568 440.246L298.077 450.836L298.077 389.822Z" fill="url(#paint19_linear_15_812)"></path><path d="M255.587 379.232L298.077 389.822L298.077 450.836L255.587 440.246L255.587 379.232Z" fill="url(#paint20_linear_15_812)"></path><rect width="43.7901" height="43.7901" transform="matrix(0.970316 -0.241842 0.970316 0.241842 255.587 379.232)" fill="#9D9D9D"></rect><path d="M170.607 196.837L213.097 186.247L213.097 247.261L170.607 257.851L170.607 196.837Z" fill="url(#paint21_linear_15_812)"></path><path d="M128.117 186.247L170.607 196.837L170.607 257.851L128.117 247.261L128.117 186.247Z" fill="url(#paint22_linear_15_812)"></path><rect width="43.7901" height="43.7901" transform="matrix(0.970316 -0.241842 0.970316 0.241842 128.117 186.247)" fill="#FEDF7D"></rect><path d="M213.097 268.442L255.588 257.851L255.588 318.619L213.097 329.209L213.097 268.442Z" fill="url(#paint23_linear_15_812)"></path><path d="M170.607 257.851L213.097 268.441L213.097 329.184L170.607 318.593L170.607 257.851Z" fill="url(#paint24_linear_15_812)"></path><rect width="43.7903" height="43.7903" transform="matrix(0.970316 -0.241842 0.970316 0.241842 170.607 257.851)" fill="#92B0FB"></rect><path d="M255.588 136.07L298.078 125.48L298.078 186.247L255.588 196.838L255.588 136.07Z" fill="url(#paint25_linear_15_812)"></path><path d="M213.097 125.48L255.588 136.07L255.588 196.812L213.097 186.222L213.097 125.48Z" fill="url(#paint26_linear_15_812)"></path><rect width="43.7903" height="43.7903" transform="matrix(0.970316 -0.241842 0.970316 0.241842 213.097 125.48)" fill="#92B0FB"></rect><defs><linearGradient id="paint0_linear_15_812" x1="255.588" y1="196.842" x2="255.588" y2="0.0515252" gradientUnits="userSpaceOnUse"><stop stop-color="#2C56DD"></stop><stop offset="1" stop-color="#2C56DD" stop-opacity="0"></stop></linearGradient><linearGradient id="paint1_linear_15_812" x1="383.059" y1="389.827" x2="383.059" y2="193.037" gradientUnits="userSpaceOnUse"><stop stop-color="#2C56DD"></stop><stop offset="1" stop-color="#2C56DD" stop-opacity="0"></stop></linearGradient><linearGradient id="paint2_linear_15_812" x1="170.607" y1="257.728" x2="170.607" y2="60.9378" gradientUnits="userSpaceOnUse"><stop stop-color="#FEDF7D"></stop><stop offset="1" stop-color="#FEDF7D" stop-opacity="0"></stop></linearGradient><linearGradient id="paint3_linear_15_812" x1="404.303" y1="473.91" x2="420.019" y2="536.966" gradientUnits="userSpaceOnUse"><stop stop-color="#2C56DD"></stop><stop offset="1" stop-color="#2C56DD" stop-opacity="0"></stop></linearGradient><linearGradient id="paint4_linear_15_812" x1="361.813" y1="445.545" x2="339.446" y2="535.283" gradientUnits="userSpaceOnUse"><stop stop-color="#2C56DD"></stop><stop offset="1" stop-color="white"></stop></linearGradient><linearGradient id="paint5_linear_15_812" x1="64.3812" y1="473.906" x2="80.0973" y2="536.962" gradientUnits="userSpaceOnUse"><stop stop-color="#2C56DD"></stop><stop offset="1" stop-color="#2C56DD" stop-opacity="0"></stop></linearGradient><linearGradient id="paint6_linear_15_812" x1="21.8907" y1="445.541" x2="-0.475706" y2="535.279" gradientUnits="userSpaceOnUse"><stop stop-color="#2C56DD"></stop><stop offset="1" stop-color="white"></stop></linearGradient><linearGradient id="paint7_linear_15_812" x1="404.304" y1="352.381" x2="420.02" y2="415.437" gradientUnits="userSpaceOnUse"><stop stop-color="#2C56DD"></stop><stop offset="1" stop-color="#2C56DD" stop-opacity="0"></stop></linearGradient><linearGradient id="paint8_linear_15_812" x1="361.813" y1="324.016" x2="339.447" y2="413.754" gradientUnits="userSpaceOnUse"><stop stop-color="#2C56DD"></stop><stop offset="1" stop-color="white"></stop></linearGradient><linearGradient id="paint9_linear_15_812" x1="149.362" y1="479.924" x2="162.034" y2="530.766" gradientUnits="userSpaceOnUse"><stop stop-color="#FEC927"></stop><stop offset="1" stop-color="#FEC927" stop-opacity="0"></stop></linearGradient><linearGradient id="paint10_linear_15_812" x1="106.872" y1="445.418" x2="84.5052" y2="535.156" gradientUnits="userSpaceOnUse"><stop stop-color="#FEC927"></stop><stop offset="1" stop-color="white"></stop></linearGradient><linearGradient id="paint11_linear_15_812" x1="234.343" y1="358.399" x2="247.014" y2="409.241" gradientUnits="userSpaceOnUse"><stop stop-color="#FEC927"></stop><stop offset="1" stop-color="#FEC927" stop-opacity="0"></stop></linearGradient><linearGradient id="paint12_linear_15_812" x1="191.852" y1="323.893" x2="169.486" y2="413.631" gradientUnits="userSpaceOnUse"><stop stop-color="#FEC927"></stop><stop offset="1" stop-color="white"></stop></linearGradient><linearGradient id="paint13_linear_15_812" x1="319.323" y1="297.529" x2="331.995" y2="348.371" gradientUnits="userSpaceOnUse"><stop stop-color="#FEC927"></stop><stop offset="1" stop-color="#FEC927" stop-opacity="0"></stop></linearGradient><linearGradient id="paint14_linear_15_812" x1="276.832" y1="263.023" x2="254.466" y2="352.761" gradientUnits="userSpaceOnUse"><stop stop-color="#FEC927"></stop><stop offset="1" stop-color="white"></stop></linearGradient><linearGradient id="paint15_linear_15_812" x1="319.323" y1="480.047" x2="331.995" y2="530.888" gradientUnits="userSpaceOnUse"><stop stop-color="#FEC927"></stop><stop offset="1" stop-color="#FEC927" stop-opacity="0"></stop></linearGradient><linearGradient id="paint16_linear_15_812" x1="276.832" y1="445.541" x2="254.466" y2="535.279" gradientUnits="userSpaceOnUse"><stop stop-color="#FEC927"></stop><stop offset="1" stop-color="white"></stop></linearGradient><linearGradient id="paint17_linear_15_812" x1="149.362" y1="265.422" x2="169.568" y2="346.493" gradientUnits="userSpaceOnUse"><stop></stop><stop offset="0.8125" stop-opacity="0.39"></stop></linearGradient><linearGradient id="paint18_linear_15_812" x1="106.871" y1="263.023" x2="84.505" y2="352.761" gradientUnits="userSpaceOnUse"><stop stop-color="#393939"></stop><stop offset="1" stop-opacity="0.22"></stop></linearGradient><linearGradient id="paint19_linear_15_812" x1="319.322" y1="386.926" x2="339.529" y2="467.997" gradientUnits="userSpaceOnUse"><stop></stop><stop offset="0.8125" stop-opacity="0.39"></stop></linearGradient><linearGradient id="paint20_linear_15_812" x1="276.832" y1="384.527" x2="254.466" y2="474.265" gradientUnits="userSpaceOnUse"><stop stop-color="#393939"></stop><stop offset="1" stop-opacity="0.22"></stop></linearGradient><linearGradient id="paint21_linear_15_812" x1="191.852" y1="226.048" x2="204.524" y2="276.89" gradientUnits="userSpaceOnUse"><stop stop-color="#FEC927"></stop><stop offset="1" stop-color="#FEC927" stop-opacity="0"></stop></linearGradient><linearGradient id="paint22_linear_15_812" x1="149.362" y1="191.542" x2="126.995" y2="281.28" gradientUnits="userSpaceOnUse"><stop stop-color="#FEC927"></stop><stop offset="1" stop-color="white"></stop></linearGradient><linearGradient id="paint23_linear_15_812" x1="234.343" y1="291.511" x2="250.059" y2="354.568" gradientUnits="userSpaceOnUse"><stop stop-color="#2C56DD"></stop><stop offset="1" stop-color="#2C56DD" stop-opacity="0"></stop></linearGradient><linearGradient id="paint24_linear_15_812" x1="191.852" y1="263.146" x2="169.486" y2="352.885" gradientUnits="userSpaceOnUse"><stop stop-color="#2C56DD"></stop><stop offset="1" stop-color="white"></stop></linearGradient><linearGradient id="paint25_linear_15_812" x1="276.833" y1="159.14" x2="292.549" y2="222.196" gradientUnits="userSpaceOnUse"><stop stop-color="#2C56DD"></stop><stop offset="1" stop-color="#2C56DD" stop-opacity="0"></stop></linearGradient><linearGradient id="paint26_linear_15_812" x1="234.343" y1="130.775" x2="211.976" y2="220.513" gradientUnits="userSpaceOnUse"><stop stop-color="#2C56DD"></stop><stop offset="1" stop-color="white"></stop></linearGradient></defs></svg> 