<svg width="92" height="108" viewBox="0 0 92 108" fill="none" xmlns="http://www.w3.org/2000/svg">
<path fill-rule="evenodd" clip-rule="evenodd" d="M90.7923 25.8779L90.7924 25.8786C90.8114 27.1061 90.8429 28.2126 90.8904 29.2608L90.8905 29.2644L90.8932 29.3323C91.1344 42.0457 91.4176 57.6396 86.2011 71.7772L86.2011 71.7773C83.3481 79.5111 79.036 86.2223 73.3885 91.7361C66.9566 98.0153 58.5061 103.03 48.242 106.618C47.9469 106.722 47.6379 106.806 47.3246 106.869C46.8853 106.956 46.4426 107 46.0012 107C45.5601 107 45.1181 106.956 44.6777 106.869C44.364 106.806 44.0573 106.722 43.7637 106.62L43.7636 106.62C33.4873 103.038 25.0279 98.0257 18.5905 91.7457C12.9407 86.2336 8.62876 79.5243 5.7783 71.7923L4.93383 72.1036L5.77829 71.7923C0.580588 57.6949 0.865639 42.1275 1.1077 29.4366L1.10776 29.4335L1.11232 29.2542C1.15956 28.2012 1.19183 27.0967 1.21004 25.8788L1.21004 25.8787C1.29044 20.4494 5.61288 15.9518 11.0471 15.6489L11.0473 15.6489C23.6858 14.943 33.5289 10.8086 41.9267 2.6278L41.9854 2.57193C44.2797 0.475945 47.7236 0.47611 50.017 2.5719L50.0758 2.62795C58.4736 10.8087 68.3167 14.943 80.9552 15.6481C86.3904 15.9518 90.7119 20.4494 90.7923 25.8779ZM91.8928 29.3032L91.8895 29.2191C91.8425 28.1817 91.8112 27.0842 91.7922 25.8631C91.704 19.9082 86.9687 14.9825 81.0109 14.6496C68.5893 13.9567 58.98 9.90766 50.7695 1.9077L50.6995 1.84096C48.0215 -0.613654 43.9818 -0.613654 41.3029 1.84096L41.2328 1.9077C33.0224 9.90766 23.4131 13.9567 10.9915 14.6504C5.03455 14.9825 0.298344 19.9082 0.210148 25.8639C0.192014 27.0768 0.159868 28.1743 0.112885 29.2191L0.10794 29.4144C-0.133569 42.0764 -0.4336 57.8349 4.84003 72.1382C7.73978 80.0039 12.1314 86.8412 17.8922 92.4615C24.4533 98.8621 33.0471 103.944 43.4344 107.564C43.7724 107.682 44.1235 107.778 44.4813 107.849C44.9857 107.95 45.4934 108 46.0012 108C46.5089 108 47.0175 107.95 47.5211 107.849C47.8789 107.778 48.2325 107.681 48.5721 107.562C58.947 103.935 67.5317 98.8514 74.0871 92.4516C79.8454 86.8297 84.2371 79.9907 87.1393 72.1234C92.4327 57.7772 92.1335 41.9891 91.8928 29.3032ZM79.0903 68.7672C76.7559 75.1776 73.2235 80.7501 68.5918 85.331C63.319 90.5456 56.4139 94.6881 48.0688 97.6435C47.7957 97.7402 47.5113 97.8187 47.2235 97.8771C46.8184 97.959 46.4094 98 46.001 98C45.5926 98 45.1842 97.959 44.7784 97.8771C44.4907 97.8187 44.2082 97.7408 43.9364 97.6448C35.5814 94.6948 28.669 90.5543 23.3916 85.339C18.7579 80.7595 15.2255 75.1883 12.8931 68.7793C8.65123 57.1247 8.89256 44.2845 9.08682 33.9673L9.0908 33.8082C9.12859 32.9569 9.15445 32.0626 9.16903 31.0743C9.23997 26.2215 13.0495 22.208 17.841 21.9374C27.8323 21.3721 35.5615 18.0729 42.1655 11.5544L42.2219 11.5C44.3766 9.49999 47.6259 9.49999 49.78 11.5L49.8364 11.5544C56.4404 18.0729 64.1696 21.3721 74.1609 21.9367C78.953 22.208 82.7619 26.2215 82.8329 31.0736C82.8481 32.0686 82.8733 32.9629 82.9111 33.8082L82.9138 33.8766C83.1074 44.2133 83.348 57.0777 79.0903 68.7672ZM47.735 96.7009C47.5069 96.7816 47.2678 96.8477 47.0253 96.897C46.6851 96.9658 46.3424 97 46.001 97C45.66 97 45.3183 96.9659 44.9773 96.8971C44.7341 96.8478 44.4966 96.7821 44.2694 96.7019L44.2693 96.7019C36.0266 93.7915 29.2488 89.7214 24.0945 84.6278C19.571 80.1571 16.117 74.7139 13.8328 68.4373C9.66511 56.9865 9.89179 44.3351 10.0866 33.9892L10.0866 33.9861L10.0902 33.8428C10.1283 32.9834 10.1543 32.0822 10.1689 31.089L10.1689 31.0889C10.2323 26.7513 13.6392 23.1763 17.8974 22.9358L17.8975 22.9358C28.1091 22.358 36.0733 18.971 42.864 12.2701L42.909 12.2267C44.6779 10.591 47.3249 10.5912 49.0929 12.2267L49.1379 12.2701C55.9285 18.9709 63.8927 22.358 74.1044 22.9351C78.3633 23.1762 81.7696 26.7514 81.833 31.0882L81.833 31.0889C81.8484 32.0908 81.8738 32.9944 81.912 33.8507L81.9121 33.8528L81.9141 33.9054C82.1082 44.2693 82.3333 56.9418 78.1507 68.425L78.1507 68.425C75.8644 74.7032 72.4102 80.1479 67.8886 84.6199C62.7387 89.713 55.968 93.7851 47.735 96.7009ZM46 72C55.9411 72 64 63.9411 64 54C64 44.0589 55.9411 36 46 36C36.0589 36 28 44.0589 28 54C28 63.9411 36.0589 72 46 72ZM46 73C56.4934 73 65 64.4934 65 54C65 43.5066 56.4934 35 46 35C35.5066 35 27 43.5066 27 54C27 64.4934 35.5066 73 46 73ZM42.5742 58.929C42.7565 59.1105 42.9694 59.2429 43.1963 59.3261C43.389 59.3968 43.5917 59.4321 43.7945 59.4321C44.2361 59.4321 44.6777 59.2646 45.0148 58.929L53.0448 50.9338C53.7184 50.2626 53.7184 49.1745 53.0448 48.5037C52.3743 47.8357 51.2895 47.8321 50.6146 48.493L50.6138 48.4938L50.6037 48.5037L43.7945 55.2835L41.9463 53.4433L41.9354 53.4326C41.756 53.257 41.5476 53.1284 41.3258 53.0467C41.2433 53.0163 41.159 52.9924 41.0736 52.975C40.5245 52.863 39.9312 53.0192 39.5052 53.4433C38.8316 54.1145 38.8316 55.2026 39.5052 55.8733L42.5742 58.929Z" fill="white"/>
</svg>
