<svg width="84" height="116" viewBox="0 0 84 116" fill="none" xmlns="http://www.w3.org/2000/svg">
<path fill-rule="evenodd" clip-rule="evenodd" d="M2.83826 108.533C15.3574 113.488 28.5334 116 42.0003 116C55.4672 116 68.6432 113.488 81.1629 108.533C82.7804 107.892 84 106.089 84 104.338V59.8204C84 58.0571 82.772 56.2547 81.1429 55.6271C79.7768 55.1014 78.2854 54.5713 76.4501 53.9595C76.237 53.8885 75.965 53.5174 75.965 53.2972V33.9229C75.964 15.2177 60.7282 0 42.0005 0C23.2727 0 8.03602 15.2177 8.03602 33.9235V53.298C8.03602 53.5182 7.76399 53.8891 7.55031 53.9601C5.71362 54.5718 4.22197 55.102 2.85651 55.6277C1.22816 56.2547 0 58.0571 0 59.8204V104.338C0 106.089 1.22022 107.893 2.83826 108.533ZM7.8662 54.9077C6.04005 55.516 4.56359 56.0409 3.21621 56.5596C1.97953 57.0358 1 58.4638 1 59.8204V104.338C1 105.683 1.97368 107.117 3.2067 107.605C15.6085 112.513 28.6595 115.001 42.0003 115.001C55.341 115.001 68.392 112.513 80.7945 107.604C82.0267 107.116 83 105.684 83 104.338V59.8204C83 58.4638 82.0207 57.0358 80.783 56.559C79.435 56.0402 77.9586 55.5153 76.1339 54.907C75.7321 54.7733 75.4575 54.4609 75.3206 54.2741C75.1861 54.0906 74.965 53.7288 74.965 53.2972V33.9229C74.964 15.7693 60.1759 0.998792 42.0005 0.998792C23.825 0.998792 9.03602 15.7694 9.03602 33.9235V53.298C9.03602 53.7297 8.81475 54.0915 8.67998 54.2753C8.54276 54.4623 8.26791 54.7742 7.8662 54.9077ZM19.7145 33.9229C19.7145 21.6492 29.7116 11.6643 41.9999 11.6643C54.288 11.6641 64.2861 21.6492 64.2861 33.9229V50.6395H63.2861H42.0035H20.7145C20.7145 50.6395 20.0474 50.5664 19.7145 50.6378V33.9229ZM18.7145 51.7962V33.9229C18.7145 21.0975 29.1593 10.6655 41.9999 10.6655C54.8403 10.6653 65.2861 21.0975 65.2861 33.9229V51.7962H18.7145ZM30.3809 56.9141C30.3809 56.6383 30.6047 56.4147 30.8809 56.4147H53.4999C53.7761 56.4147 53.9999 56.6383 53.9999 56.9141C53.9999 57.1899 53.7761 57.4135 53.4999 57.4135H30.8809C30.6047 57.4135 30.3809 57.1899 30.3809 56.9141ZM37.8445 61.2982C36.9056 61.2982 36.1445 62.0584 36.1445 62.9961C36.1445 63.9339 36.9056 64.6941 37.8445 64.6941H46.5442C47.4831 64.6941 48.2442 63.9339 48.2442 62.9961C48.2442 62.0584 47.4831 61.2982 46.5442 61.2982H37.8445ZM54.6318 82.3501C55.2484 83.0026 55.248 84.0218 54.6321 84.6743L49.1115 90.5163C48.7784 90.8683 48.3271 91.0468 47.8786 91.0468C47.4626 91.0468 47.0428 90.8937 46.7153 90.5852C46.0357 89.9437 46.0027 88.8721 46.646 88.1916L51.0682 83.5119L46.6461 78.833C46.003 78.1526 46.0348 77.0809 46.7149 76.4395C47.3959 75.7977 48.4687 75.8281 49.1114 76.5086L54.6318 82.3501ZM27.4622 84.5545C26.8463 83.9058 26.8459 82.8926 27.4625 82.2439L32.9825 76.4362C33.6252 75.7597 34.698 75.7295 35.3789 76.3675C36.0589 77.0052 36.0908 78.0707 35.4476 78.7471L31.0258 83.3989L35.4478 88.0514C36.091 88.728 36.0581 89.7934 35.3785 90.4312C35.051 90.7379 34.6312 90.8901 34.2152 90.8901C33.7667 90.8901 33.3155 90.7126 32.9824 90.3627L27.4622 84.5545ZM42.5011 73.255C43.4269 73.3961 44.0623 74.2602 43.9211 75.1844L41.2952 92.3513C41.1668 93.1895 40.4445 93.7888 39.6205 93.7888C39.536 93.7888 39.4512 93.7826 39.3662 93.7699L39.3635 93.7695C38.4377 93.6284 37.8022 92.7642 37.9435 91.8401L40.5694 74.6732C40.7108 73.7481 41.5776 73.1152 42.5011 73.255ZM37.8438 106.811C37.5676 106.811 37.3438 107.035 37.3438 107.311C37.3438 107.586 37.5676 107.81 37.8438 107.81H46.5434C46.8195 107.81 47.0434 107.586 47.0434 107.311C47.0434 107.035 46.8195 106.811 46.5434 106.811H37.8438Z" fill="white"/>
</svg>
