<svg width="16" height="16" viewBox="0 0 16 16" fill="none" xmlns="http://www.w3.org/2000/svg">
<path fill-rule="evenodd" clip-rule="evenodd" d="M5.15212 6.8295L8.00075 3.98212L10.8505 6.83182L12.5071 5.17413L8.00075 0.666748L3.49438 5.17298L5.15212 6.8295ZM0.666016 8.00032L2.32315 6.34324L3.98029 8.00032L2.32315 9.6574L0.666016 8.00032ZM8.00075 12.0192L5.15213 9.17066L3.49207 10.826L8.00075 15.3334L12.5083 10.8249L10.8505 9.1695L8.00075 12.0192ZM12.0184 8.00073L13.6756 6.34365L15.3327 8.00073L13.6756 9.65781L12.0184 8.00073ZM8.00075 6.31749L9.68282 7.9995L8.00075 9.68267L6.31752 7.9995L8.00075 6.31749Z" fill="#F3BA2F"/>
</svg>
