<svg width="188" height="65" viewBox="0 0 188 65" fill="none" xmlns="http://www.w3.org/2000/svg">
<path opacity="0.5" d="M1.08008 43.3829L2.1706 45.5274C2.49438 46.1641 3.38862 46.205 3.7692 45.6005L4.89481 43.8127C5.06324 43.5452 5.35723 43.3829 5.67335 43.3829H6.68916C7.07845 43.3829 7.4256 43.6279 7.556 43.9947L8.58124 46.8784C8.78605 47.4545 9.48542 47.6742 9.9829 47.3188L10.2278 47.1438C10.3838 47.0324 10.5708 46.9724 10.7626 46.9724H12.4603C12.9142 46.9724 13.3003 46.6414 13.3696 46.1928L13.9112 42.6845C13.9804 42.2359 14.3665 41.9049 14.8204 41.9049H15.9604C16.3639 41.9049 16.7204 42.1679 16.8394 42.5535L17.3739 44.2846C17.4054 44.3865 17.4544 44.4822 17.5186 44.5674L19.1627 46.7457C19.2741 46.8934 19.4276 47.0041 19.6029 47.0632L22.0735 47.8968C22.3214 47.9804 22.5219 48.1655 22.625 48.4059L24.5509 52.8972C24.6069 53.0278 24.6923 53.1436 24.8006 53.2356L27.8552 55.8327C28.0216 55.9741 28.2328 56.0518 28.4512 56.0518H29.8882C30.2382 56.0518 30.558 55.8531 30.713 55.5392L32.7076 51.5017C33.055 50.7985 34.0666 50.8246 34.3772 51.5448L37.3511 58.4405C37.3925 58.5365 37.4499 58.6247 37.5209 58.7014L38.1109 59.3383C38.5376 59.799 39.2902 59.7063 39.5924 59.1558L40.562 57.3892C40.6622 57.2068 40.8212 57.0637 41.0131 56.9833L42.4607 56.3771C42.9003 56.1929 43.4078 56.3751 43.63 56.7968L45.6536 60.6371C45.8641 61.0366 46.3336 61.2243 46.7616 61.0799L48.1973 60.5955C48.7085 60.423 49.2578 60.7255 49.3853 61.2498L49.8058 62.9783C49.9915 63.7417 50.9869 63.9361 51.4462 63.2986L52.1035 62.3862L54.0551 58.676C54.0868 58.6159 54.1116 58.5524 54.1293 58.4868L55.5477 53.217C55.5694 53.1365 55.6019 53.0593 55.6444 52.9876L57.5065 49.8409C57.555 49.759 57.5904 49.6701 57.6116 49.5774L58.3641 46.2874C58.4183 46.05 58.5646 45.8438 58.7706 45.714L60.5415 44.5988C60.7067 44.4947 60.8345 44.3408 60.9065 44.1593L63.0557 38.7377L65.7533 33.2088C65.8087 33.0953 65.8868 32.9944 65.9829 32.9124L68.9175 30.4078C69.0072 30.3311 69.0814 30.238 69.136 30.1333L69.8637 28.7378C70.2124 28.069 71.1736 28.081 71.5055 28.7583L72.8779 31.5586L75.3484 35.5594C75.4381 35.7047 75.4856 35.872 75.4856 36.0428V38.434C75.4856 38.6312 75.549 38.8232 75.6664 38.9817L76.5452 40.1676C77.0281 40.8193 78.0569 40.5726 78.1916 39.7727L78.5839 37.4434C78.6043 37.3221 78.6488 37.2062 78.7149 37.1024L82.2699 31.5146C82.6318 30.9457 83.4626 30.9465 83.8233 31.5162L84.7366 32.9581C84.7696 33.0104 84.7974 33.0658 84.8193 33.1236L85.8294 35.7816L86.8912 38.1889C87.0383 38.5225 87.3684 38.7377 87.7329 38.7377H89.1518C89.4158 38.7377 89.6671 38.6243 89.8417 38.4263L90.8157 37.3221C90.8524 37.2805 90.8928 37.2424 90.9363 37.2081L93.8775 34.8909C94.0144 34.7831 94.1178 34.6386 94.1757 34.4744L95.6516 30.2918L97.0076 27.2038C97.0307 27.1511 97.0588 27.1007 97.0913 27.0532L98.3155 25.269C98.571 24.8965 99.0825 24.8063 99.45 25.0689L99.5582 25.1462C99.9192 25.4041 100.426 25.2647 100.605 24.8585V24.8585C100.892 24.2043 101.859 24.3516 101.939 25.0615L102.159 27.0185C102.167 27.089 102.183 27.1583 102.207 27.225L103.087 29.6937C103.215 30.0523 103.555 30.2918 103.936 30.2918V30.2918C104.29 30.2918 104.611 30.4994 104.757 30.8223L105.659 32.8242C105.988 33.5532 107.026 33.5447 107.343 32.8104L107.448 32.5668C107.786 31.7835 108.915 31.8419 109.171 32.6558L109.24 32.8766C109.472 33.6166 110.459 33.755 110.886 33.1073L111.402 32.3245C111.681 31.9011 112.249 31.7831 112.674 32.0606L113.558 32.6393C113.915 32.8723 114.384 32.8305 114.694 32.5381L115.66 31.6256C115.707 31.5811 115.759 31.5417 115.814 31.508L117.339 30.5818C117.633 30.4036 118.001 30.4036 118.294 30.5818L118.899 30.949C119.41 31.2591 120.076 31.0079 120.254 30.438L121.252 27.2561C121.28 27.1689 121.32 27.0862 121.372 27.0109L122.977 24.671C123.014 24.6177 123.045 24.5606 123.069 24.5008L124.336 21.4236L126.596 14.6668L127.987 11.8081C128.33 11.1033 129.34 11.1226 129.656 11.84L131.113 15.1515C131.334 15.6518 131.969 15.8059 132.394 15.4619V15.4619C132.858 15.0864 133.555 15.3091 133.714 15.8841L135.304 21.5997C135.44 22.0866 135.943 22.3731 136.43 22.2414L138.979 21.5534C139.279 21.4724 139.518 21.2453 139.615 20.9496L139.934 19.9663C140.205 19.1327 141.378 19.1143 141.675 19.9389L141.823 20.3517C142.103 21.1281 143.184 21.1721 143.526 20.4209L144.415 18.4675L145.727 16.3422C146.138 15.6778 147.137 15.7944 147.383 16.5353L148.587 20.1567L149.522 23.1854C149.592 23.4099 149.744 23.5994 149.949 23.715L153.011 25.4446C153.238 25.5731 153.4 25.7923 153.456 26.0475L154.579 31.1368C154.638 31.404 154.813 31.6312 155.056 31.7565L156.839 32.6755C157.243 32.8834 157.737 32.7661 158.005 32.3994L159.493 30.3554C159.524 30.313 159.551 30.2682 159.574 30.2212L161.062 27.2095C161.09 27.153 161.112 27.0938 161.128 27.0328L162.278 22.595C162.431 22.0061 163.103 21.7249 163.629 22.0294L163.78 22.1168C164.148 22.3295 164.614 22.2627 164.907 21.9552L167.704 19.0213C167.971 18.7412 168.43 18.7893 168.634 19.1185V19.1185C168.893 19.5386 169.523 19.4739 169.691 19.0099L171.509 14.0067C171.667 13.5697 172.251 13.4887 172.522 13.866V13.866C172.781 14.2247 173.33 14.173 173.517 13.7724L174.038 12.6547C174.303 12.0861 175.048 11.9441 175.504 12.3749L175.972 12.8178C176.084 12.9227 176.167 13.0537 176.215 13.1988L176.407 13.7828C176.674 14.5941 177.806 14.6351 178.131 13.8453L178.863 12.0691C179.134 11.4108 180.086 11.4749 180.267 12.1635V12.1635C180.456 12.8848 181.471 12.9082 181.693 12.1964L183.096 7.69897L184.093 4.92884C184.225 4.5639 184.571 4.32061 184.959 4.32061H185.318C185.747 4.32061 186.119 4.024 186.214 3.60572L186.92 0.519958" stroke="#959CBD" stroke-width="0.92"/>
</svg>
