<svg width="38" height="38" viewBox="0 0 38 38" fill="none" xmlns="http://www.w3.org/2000/svg">
<circle cx="19" cy="19" r="18.3984" fill="#C4C8E9"/>
<circle cx="19" cy="19" r="18.3984" fill="url(#paint0_linear)"/>
<circle cx="19" cy="19" r="18.3984" stroke="url(#paint1_linear)" stroke-width="1.20319"/>
<g filter="url(#filter0_d)">
<path d="M19 11L17.5185 11.844L13.4815 14.156L12 15V23L13.4815 23.844L17.5556 26.156L19.037 27L20.5185 26.156L24.5185 23.844L26 23V15L24.5185 14.156L20.4815 11.844L19 11ZM14.963 21.3119V16.6881L19 14.3761L23.037 16.6881V21.3119L19 23.6239L14.963 21.3119Z" fill="white"/>
</g>
<defs>
<filter id="filter0_d" x="8.22" y="10" width="20" height="22" filterUnits="userSpaceOnUse" color-interpolation-filters="sRGB">
<feFlood flood-opacity="0" result="BackgroundImageFix"/>
<feColorMatrix in="SourceAlpha" type="matrix" values="0 0 0 0 0 0 0 0 0 0 0 0 0 0 0 0 0 0 127 0"/>
<feOffset dx="-0.78" dy="2"/>
<feGaussianBlur stdDeviation="1.5"/>
<feColorMatrix type="matrix" values="0 0 0 0 0.227451 0 0 0 0 0.117647 0 0 0 0 0.909804 0 0 0 0.95 0"/>
<feBlend mode="normal" in2="BackgroundImageFix" result="effect1_dropShadow"/>
<feBlend mode="normal" in="SourceGraphic" in2="effect1_dropShadow" result="shape"/>
</filter>
<linearGradient id="paint0_linear" x1="19" y1="0" x2="19" y2="38" gradientUnits="userSpaceOnUse">
<stop stop-color="#644AFF"/>
<stop offset="1" stop-color="#7B66FF"/>
</linearGradient>
<linearGradient id="paint1_linear" x1="19" y1="0" x2="19" y2="38" gradientUnits="userSpaceOnUse">
<stop stop-color="#8A77FF"/>
<stop offset="1" stop-color="#553CEE"/>
</linearGradient>
</defs>
</svg>
