<svg width="38" height="38" viewBox="0 0 38 38" fill="none" xmlns="http://www.w3.org/2000/svg">
<circle cx="19" cy="19" r="18.3984" fill="#C4C8E9"/>
<circle cx="19" cy="19" r="18.3984" fill="url(#paint0_linear)"/>
<circle cx="19" cy="19" r="18.3984" stroke="url(#paint1_linear)" stroke-width="1.20319"/>
<g filter="url(#filter0_d)">
<path fill-rule="evenodd" clip-rule="evenodd" d="M10.3823 7.32331C13.0124 10.5598 17.0648 15.5919 17.268 15.8663C17.4373 16.0951 17.3696 16.3124 17.0874 16.4725C16.9293 16.564 16.602 16.6555 16.444 16.6555C16.2633 16.6555 16.0489 16.564 15.9021 16.4153C15.8005 16.3124 15.3603 15.6605 14.367 14.0937C13.6107 12.8929 12.9673 11.8979 12.956 11.8865C12.951 11.8839 12.9466 11.8817 12.9445 11.883C12.9276 11.894 13.0629 12.1389 14.288 14.3567C15.1571 15.9235 15.4393 16.4839 15.4393 16.5525C15.4393 16.7012 15.3942 16.7813 15.2136 16.9871C14.9088 17.3302 14.7733 17.719 14.6718 18.531C14.5589 19.4345 14.2541 20.075 13.3849 21.1614C12.877 21.8019 12.798 21.9162 12.6738 22.1793C12.5158 22.4995 12.4706 22.6825 12.448 23.0942C12.4255 23.5288 12.4706 23.8032 12.5948 24.215C12.7077 24.5809 12.8318 24.8211 13.1366 25.29C13.3962 25.7017 13.5542 26.0105 13.5542 26.1248C13.5542 26.2163 13.5768 26.2163 13.9832 26.1248C14.9539 25.8961 15.7554 25.5073 16.1956 25.0269C16.4665 24.7296 16.5343 24.5695 16.5343 24.1578C16.5343 23.8947 16.523 23.8375 16.4552 23.6774C16.3424 23.4258 16.1279 23.22 15.6651 22.8998C15.0555 22.4766 14.7959 22.1335 14.7282 21.6761C14.6718 21.2872 14.7395 21.0242 15.0781 20.3037C15.428 19.5603 15.5183 19.2515 15.5748 18.4967C15.6086 18.0164 15.6651 17.822 15.8005 17.6733C15.9473 17.5132 16.0715 17.456 16.4214 17.4103C16.9971 17.3302 17.3696 17.1815 17.6631 16.8956C17.9227 16.6555 18.0356 16.4153 18.0468 16.0608L18.0581 15.7977L17.9114 15.6376C17.3809 15.02 10.0324 6.83154 9.99855 6.83154C9.99165 6.83154 10.0564 6.91262 10.1567 7.03829L10.1567 7.03829C10.2205 7.11835 10.2989 7.2165 10.3823 7.32331ZM13.8477 23.5859C13.9719 23.3687 13.9042 23.0942 13.701 22.9569C13.5091 22.8311 13.2156 22.8883 13.2156 23.0599C13.2156 23.1056 13.2382 23.1514 13.3059 23.1742C13.4075 23.2314 13.4188 23.2886 13.3398 23.4144C13.2608 23.5402 13.2608 23.6546 13.3624 23.7346C13.5204 23.8604 13.7349 23.7918 13.8477 23.5859ZM17.4488 11.875C17.2117 11.8407 17.2004 11.8292 17.3133 11.8178C17.5278 11.7835 18.0245 11.8292 18.3744 11.9093C19.1871 12.1037 19.9208 12.6069 20.6997 13.4875L20.9029 13.7277L21.1964 13.6819C22.4493 13.4761 23.7361 13.6362 24.8085 14.1394C25.102 14.2766 25.5648 14.5511 25.6212 14.6197C25.6438 14.6426 25.6777 14.7913 25.7002 14.9399C25.7793 15.4775 25.7454 15.8777 25.5761 16.1865C25.4858 16.3581 25.4858 16.4038 25.5422 16.5525C25.5874 16.6669 25.7228 16.7469 25.847 16.7469C26.1179 16.7469 26.4001 16.3123 26.5356 15.7062L26.592 15.466L26.6936 15.5804C27.2693 16.2323 27.7208 17.1357 27.7885 17.7762L27.8111 17.9477L27.7095 17.7991C27.5402 17.536 27.3821 17.3645 27.1677 17.2158C26.7839 16.9528 26.3775 16.8727 25.3052 16.8155C24.3344 16.7583 23.7813 16.6783 23.2395 16.4953C22.3139 16.1865 21.8398 15.7862 20.7448 14.3109C20.2595 13.6591 19.9547 13.3045 19.6499 13.0072C18.9839 12.3553 18.3179 12.0122 17.4488 11.875ZM25.8572 13.3274C25.8797 12.8928 25.9362 12.6069 26.0603 12.3438C26.1055 12.2409 26.1506 12.1494 26.1619 12.1494C26.1732 12.1494 26.1506 12.2295 26.1168 12.321C26.0265 12.5726 26.0152 12.9271 26.0716 13.3274C26.1506 13.842 26.1845 13.9106 26.7263 14.471C26.9747 14.7341 27.2681 15.0657 27.381 15.203L27.5729 15.4546L27.381 15.2716C27.144 15.0429 26.6022 14.6083 26.478 14.5511C26.399 14.5053 26.3877 14.5053 26.3312 14.5625C26.2861 14.6083 26.2748 14.6769 26.2748 15.0085C26.2635 15.5232 26.1958 15.8434 26.0265 16.1751C25.9362 16.3466 25.9249 16.3123 26.0039 16.1179C26.0603 15.9692 26.0716 15.9006 26.0716 15.4088C26.0716 14.4138 25.9587 14.1737 25.2702 13.7734C25.1009 13.6705 24.8074 13.5218 24.6381 13.4417C24.4574 13.3617 24.322 13.2931 24.3333 13.2931C24.3559 13.2702 25.0218 13.4646 25.2815 13.579C25.6765 13.7391 25.7443 13.7505 25.7894 13.7391C25.8233 13.7048 25.8459 13.6133 25.8572 13.3274ZM17.1987 12.5727C17.131 13.3389 17.4358 14.3682 17.9099 15.0315C18.2824 15.5462 18.8581 15.9465 19.287 15.9922C19.5692 16.0151 19.6482 15.9236 19.5241 15.7406C19.3434 15.489 19.129 15.0887 19.0725 14.9172C19.0387 14.8142 18.9597 14.494 18.9032 14.2196C18.7113 13.2818 18.5081 12.9044 18.0566 12.6299C17.8873 12.527 17.5374 12.3897 17.3342 12.3554L17.2213 12.3325L17.1987 12.5727ZM25.2794 20.0062C23.0444 19.0913 22.2543 18.3022 22.2543 16.9641C22.2543 16.7697 22.2655 16.6096 22.2655 16.6096C22.2731 16.6096 22.3107 16.6401 22.3651 16.6842C22.3922 16.7062 22.4236 16.7316 22.4574 16.7583C22.909 17.1242 23.4169 17.2844 24.8279 17.4902C25.6519 17.616 26.126 17.7075 26.555 17.8562C27.9208 18.3136 28.7674 19.2514 28.9706 20.5209C29.027 20.8868 28.9931 21.5845 28.9028 21.9504C28.8238 22.2363 28.5981 22.7624 28.5416 22.7739C28.5303 22.7739 28.5078 22.7167 28.5078 22.6252C28.4852 22.1448 28.2481 21.6874 27.8531 21.3329C27.379 20.9211 26.7694 20.6124 25.2794 20.0062ZM23.5886 19.9033C23.6225 19.9948 23.6789 20.2121 23.7015 20.3837C23.8821 21.4587 23.329 22.3393 22.2115 22.6938C22.0986 22.7396 21.6471 22.8311 21.2069 22.8997C20.3152 23.0598 19.9088 23.1627 19.5137 23.3571C19.2315 23.4944 18.8816 23.7002 18.9042 23.7231C18.9154 23.7345 18.9832 23.7117 19.0509 23.6888C19.5589 23.5058 20.1233 23.4143 20.9698 23.3686C21.2523 23.3495 21.5662 23.3225 21.7412 23.3074L21.7419 23.3073L21.7422 23.3073L21.7427 23.3073L21.7431 23.3072L21.8277 23.3C22.584 23.197 23.1146 22.9683 23.5209 22.5452C23.7467 22.305 23.8821 22.0877 23.995 21.7789C24.0627 21.5845 24.074 21.5044 24.074 21.1613C24.074 20.8068 24.074 20.7382 23.995 20.5209C23.8934 20.235 23.7805 20.0291 23.6338 19.8576L23.5322 19.7318L23.5886 19.9033ZM24.7301 22.2249C24.4366 21.573 24.3689 20.9554 24.5269 20.3722C24.5495 20.315 24.5721 20.2578 24.5947 20.2578C24.6172 20.2578 24.685 20.2921 24.7527 20.3378C24.8881 20.4293 25.1703 20.5894 25.8928 20.9897C26.8071 21.4929 27.3263 21.8818 27.6876 22.3278C28.0036 22.7166 28.1955 23.1627 28.2858 23.7116C28.3423 24.0204 28.3084 24.7638 28.2294 25.0725C27.981 26.0446 27.4166 26.8223 26.5926 27.2683C26.4685 27.337 26.3669 27.3827 26.3556 27.3827C26.3443 27.3827 26.3894 27.2683 26.4572 27.1311C26.7281 26.5478 26.7619 25.9875 26.5588 25.3585C26.4346 24.9696 26.175 24.5007 25.6557 23.7116C25.0349 22.7967 24.8881 22.5565 24.7301 22.2249ZM19.1302 24.3521C18.182 24.5122 17.1548 25.0154 16.3195 25.7245L16.0825 25.9532L16.297 25.9875C17.4258 26.159 17.7305 26.3192 18.5207 27.1426C18.9722 27.6115 19.1302 27.7144 19.5027 27.8173C20.0558 27.966 20.5977 27.703 20.7896 27.1998C20.8686 26.971 20.8573 26.6051 20.767 26.4221C20.5412 25.9761 19.8752 25.8388 19.5592 26.159C19.2996 26.4221 19.3786 26.8338 19.7059 26.9024L19.7059 26.9024L19.706 26.9024C19.7365 26.9076 19.7532 26.9104 19.7542 26.9078C19.7553 26.9045 19.7329 26.8932 19.6833 26.8681C19.5366 26.7995 19.4689 26.708 19.4689 26.5593C19.4576 26.2048 19.8527 26.0218 20.2139 26.1819C20.4848 26.3077 20.5864 26.4678 20.5864 26.7423C20.5864 27.1655 20.2252 27.4971 19.8075 27.4399C19.5817 27.4056 19.3108 27.2684 19.1641 27.0968C18.8029 26.6851 18.9383 26.0104 19.4576 25.7588C19.8527 25.5643 20.3719 25.6215 20.7783 25.8846C21.2411 26.1934 21.4443 26.4678 21.8393 27.3942C21.9748 27.703 22.1328 28.0346 22.2118 28.149C22.5843 28.7208 23.0471 29.0067 23.589 29.0067C23.8937 29.0067 24.1195 28.961 24.4017 28.8123C24.6049 28.7094 24.9096 28.5035 24.8871 28.4806C24.8871 28.4716 24.831 28.491 24.7576 28.5164L24.7576 28.5164L24.7575 28.5164C24.7377 28.5233 24.7167 28.5306 24.6952 28.5378C24.0969 28.7666 23.4874 28.7551 23.1374 28.4921C22.9117 28.3205 22.7311 28.0003 22.6408 27.5886L22.6297 27.5234C22.6083 27.3979 22.5644 27.1407 22.5279 26.891C22.4037 26.1019 22.2796 25.7473 22.0087 25.3356C21.7265 24.9125 21.1846 24.5694 20.5864 24.4093C20.2139 24.3063 19.5366 24.2835 19.1302 24.3521ZM17.8105 18.2451C17.8896 17.9477 18.1492 17.6504 18.4201 17.5703C18.6007 17.5131 18.9506 17.5474 19.1199 17.6389C19.4473 17.8105 19.6843 18.1879 19.6279 18.4624C19.5715 18.794 19.0409 19.0685 18.4201 19.0685C18.104 19.0685 17.9912 19.0227 17.867 18.8626C17.788 18.7597 17.7654 18.428 17.8105 18.2451ZM19.0296 17.7533C19.199 17.8562 19.2328 18.0049 19.1425 18.1421C19.0748 18.2336 18.8716 18.3251 18.7249 18.3251C18.4991 18.3251 18.2621 18.165 18.2621 18.0163C18.2621 17.719 18.7249 17.5589 19.0296 17.7533Z" fill="white"/>
</g>
<defs>
<filter id="filter0_d" x="6.21805" y="5.83154" width="25.0001" height="28.1752" filterUnits="userSpaceOnUse" color-interpolation-filters="sRGB">
<feFlood flood-opacity="0" result="BackgroundImageFix"/>
<feColorMatrix in="SourceAlpha" type="matrix" values="0 0 0 0 0 0 0 0 0 0 0 0 0 0 0 0 0 0 127 0"/>
<feOffset dx="-0.78" dy="2"/>
<feGaussianBlur stdDeviation="1.5"/>
<feColorMatrix type="matrix" values="0 0 0 0 0.227451 0 0 0 0 0.117647 0 0 0 0 0.909804 0 0 0 0.95 0"/>
<feBlend mode="normal" in2="BackgroundImageFix" result="effect1_dropShadow"/>
<feBlend mode="normal" in="SourceGraphic" in2="effect1_dropShadow" result="shape"/>
</filter>
<linearGradient id="paint0_linear" x1="19" y1="0" x2="19" y2="38" gradientUnits="userSpaceOnUse">
<stop stop-color="#644AFF"/>
<stop offset="1" stop-color="#7B66FF"/>
</linearGradient>
<linearGradient id="paint1_linear" x1="19" y1="0" x2="19" y2="38" gradientUnits="userSpaceOnUse">
<stop stop-color="#8A77FF"/>
<stop offset="1" stop-color="#553CEE"/>
</linearGradient>
</defs>
</svg>
