<svg width="64" height="64" viewBox="0 0 64 64" fill="none" xmlns="http://www.w3.org/2000/svg">
<circle cx="32" cy="32" r="31.3984" fill="#C4C8E9"/>
<circle cx="32" cy="32" r="31.3984" fill="url(#paint0_linear)"/>
<circle cx="32" cy="32" r="31.3984" stroke="url(#paint1_linear)" stroke-width="1.20319"/>
<g filter="url(#filter0_d)">
<path d="M32.2656 16V28.1027L42.4949 32.6736L32.2656 16Z" fill="white" fill-opacity="0.602"/>
<path d="M32.2639 16L22.0332 32.6736L32.2639 28.1027V16Z" fill="white"/>
<path d="M32.2656 40.5162V48.7398L42.5017 34.5781L32.2656 40.5162Z" fill="white" fill-opacity="0.602"/>
<path d="M32.2639 48.7398V40.5148L22.0332 34.5781L32.2639 48.7398Z" fill="white"/>
<path d="M32.2656 38.6131L42.4949 32.6736L32.2656 28.1055V38.6131Z" fill="white" fill-opacity="0.2"/>
<path d="M22.0332 32.6736L32.2639 38.6131V28.1055L22.0332 32.6736Z" fill="white" fill-opacity="0.602"/>
</g>
<defs>
<filter id="filter0_d" x="18.2532" y="15" width="26.4685" height="38.7398" filterUnits="userSpaceOnUse" color-interpolation-filters="sRGB">
<feFlood flood-opacity="0" result="BackgroundImageFix"/>
<feColorMatrix in="SourceAlpha" type="matrix" values="0 0 0 0 0 0 0 0 0 0 0 0 0 0 0 0 0 0 127 0"/>
<feOffset dx="-0.78" dy="2"/>
<feGaussianBlur stdDeviation="1.5"/>
<feColorMatrix type="matrix" values="0 0 0 0 0.227451 0 0 0 0 0.117647 0 0 0 0 0.909804 0 0 0 0.95 0"/>
<feBlend mode="normal" in2="BackgroundImageFix" result="effect1_dropShadow"/>
<feBlend mode="normal" in="SourceGraphic" in2="effect1_dropShadow" result="shape"/>
</filter>
<linearGradient id="paint0_linear" x1="32" y1="0" x2="32" y2="64" gradientUnits="userSpaceOnUse">
<stop stop-color="#644AFF"/>
<stop offset="1" stop-color="#7B66FF"/>
</linearGradient>
<linearGradient id="paint1_linear" x1="32" y1="0" x2="32" y2="64" gradientUnits="userSpaceOnUse">
<stop stop-color="#8A77FF"/>
<stop offset="1" stop-color="#553CEE"/>
</linearGradient>
</defs>
</svg>
