<svg width="38" height="38" viewBox="0 0 38 38" fill="none" xmlns="http://www.w3.org/2000/svg">
<circle cx="19" cy="19" r="18.3984" fill="#C4C8E9"/>
<circle cx="19" cy="19" r="18.3984" fill="url(#paint0_linear)"/>
<circle cx="19" cy="19" r="18.3984" stroke="url(#paint1_linear)" stroke-width="1.20319"/>
<g filter="url(#filter0_d)">
<path d="M10.5586 24V16.1523L16.6632 20.6314V24H18.2213V20.3151C18.221 20.1782 18.1881 20.0432 18.1253 19.9207C18.0625 19.7983 17.9714 19.6917 17.8592 19.6093L10.456 14.1754C10.3206 14.0773 10.16 14.0178 9.99194 14.0034C9.82391 13.989 9.65508 14.0203 9.50421 14.0939C9.35335 14.1674 9.22635 14.2803 9.13734 14.42C9.04833 14.5597 9.00079 14.7207 9 14.8851V24H10.5586ZM27.4414 24V16.1523L21.3368 20.6314V24H19.7787V20.3151C19.779 20.1782 19.8119 20.0432 19.8747 19.9207C19.9375 19.7983 20.0286 19.6917 20.1408 19.6093L27.544 14.1776C27.6792 14.0797 27.8397 14.0201 28.0075 14.0057C28.1753 13.9912 28.344 14.0223 28.4948 14.0956C28.6456 14.1689 28.7726 14.2814 28.8618 14.4208C28.9509 14.5601 28.9988 14.7209 29 14.8851V24H27.4414Z" fill="white"/>
</g>
<defs>
<filter id="filter0_d" x="5.22" y="13" width="26" height="16" filterUnits="userSpaceOnUse" color-interpolation-filters="sRGB">
<feFlood flood-opacity="0" result="BackgroundImageFix"/>
<feColorMatrix in="SourceAlpha" type="matrix" values="0 0 0 0 0 0 0 0 0 0 0 0 0 0 0 0 0 0 127 0"/>
<feOffset dx="-0.78" dy="2"/>
<feGaussianBlur stdDeviation="1.5"/>
<feColorMatrix type="matrix" values="0 0 0 0 0.227451 0 0 0 0 0.117647 0 0 0 0 0.909804 0 0 0 0.95 0"/>
<feBlend mode="normal" in2="BackgroundImageFix" result="effect1_dropShadow"/>
<feBlend mode="normal" in="SourceGraphic" in2="effect1_dropShadow" result="shape"/>
</filter>
<linearGradient id="paint0_linear" x1="19" y1="0" x2="19" y2="38" gradientUnits="userSpaceOnUse">
<stop stop-color="#644AFF"/>
<stop offset="1" stop-color="#7B66FF"/>
</linearGradient>
<linearGradient id="paint1_linear" x1="19" y1="0" x2="19" y2="38" gradientUnits="userSpaceOnUse">
<stop stop-color="#8A77FF"/>
<stop offset="1" stop-color="#553CEE"/>
</linearGradient>
</defs>
</svg>
