<svg width="133" height="133" viewBox="0 0 133 133" fill="none" xmlns="http://www.w3.org/2000/svg">
<mask id="path-1-outside-1" maskUnits="userSpaceOnUse" x="-5.72619e-06" y="-2.92866e-06" width="69" height="69" fill="black">
<rect fill="white" x="-5.72619e-06" y="-2.92866e-06" width="69" height="69"/>
<path d="M66.5 2C58.0297 2 49.6424 3.66834 41.8169 6.90977C33.9914 10.1512 26.881 14.9022 20.8916 20.8916C14.9022 26.881 10.1512 33.9914 6.90977 41.8169C3.66834 49.6424 2 58.0297 2 66.5L8.45 66.5C8.45 58.8768 9.9515 51.3282 12.8688 44.2852C15.7861 37.2423 20.062 30.8429 25.4524 25.4525C30.8429 20.062 37.2423 15.7861 44.2852 12.8688C51.3282 9.95151 58.8768 8.44999 66.5 8.44999L66.5 2Z"/>
</mask>
<path d="M66.5 2C58.0297 2 49.6424 3.66834 41.8169 6.90977C33.9914 10.1512 26.881 14.9022 20.8916 20.8916C14.9022 26.881 10.1512 33.9914 6.90977 41.8169C3.66834 49.6424 2 58.0297 2 66.5L8.45 66.5C8.45 58.8768 9.9515 51.3282 12.8688 44.2852C15.7861 37.2423 20.062 30.8429 25.4524 25.4525C30.8429 20.062 37.2423 15.7861 44.2852 12.8688C51.3282 9.95151 58.8768 8.44999 66.5 8.44999L66.5 2Z" fill="#ECC5C9"/>
<path d="M66.5 2C58.0297 2 49.6424 3.66834 41.8169 6.90977C33.9914 10.1512 26.881 14.9022 20.8916 20.8916C14.9022 26.881 10.1512 33.9914 6.90977 41.8169C3.66834 49.6424 2 58.0297 2 66.5L8.45 66.5C8.45 58.8768 9.9515 51.3282 12.8688 44.2852C15.7861 37.2423 20.062 30.8429 25.4524 25.4525C30.8429 20.062 37.2423 15.7861 44.2852 12.8688C51.3282 9.95151 58.8768 8.44999 66.5 8.44999L66.5 2Z" stroke="white" stroke-width="4" mask="url(#path-1-outside-1)"/>
<mask id="path-2-outside-2" maskUnits="userSpaceOnUse" x="64" y="-5.72619e-06" width="69" height="69" fill="black">
<rect fill="white" x="64" y="-5.72619e-06" width="69" height="69"/>
<path d="M131 66.5C131 58.0297 129.332 49.6424 126.09 41.8169C122.849 33.9914 118.098 26.881 112.108 20.8916C106.119 14.9022 99.0086 10.1512 91.1831 6.90976C83.3576 3.66834 74.9703 2 66.5 2L66.5 8.44999C74.1232 8.44999 81.6718 9.9515 88.7148 12.8688C95.7577 15.7861 102.157 20.062 107.548 25.4524C112.938 30.8429 117.214 37.2423 120.131 44.2852C123.048 51.3282 124.55 58.8768 124.55 66.5L131 66.5Z"/>
</mask>
<path d="M131 66.5C131 58.0297 129.332 49.6424 126.09 41.8169C122.849 33.9914 118.098 26.881 112.108 20.8916C106.119 14.9022 99.0086 10.1512 91.1831 6.90976C83.3576 3.66834 74.9703 2 66.5 2L66.5 8.44999C74.1232 8.44999 81.6718 9.9515 88.7148 12.8688C95.7577 15.7861 102.157 20.062 107.548 25.4524C112.938 30.8429 117.214 37.2423 120.131 44.2852C123.048 51.3282 124.55 58.8768 124.55 66.5L131 66.5Z" fill="#7FCEE2"/>
<path d="M131 66.5C131 58.0297 129.332 49.6424 126.09 41.8169C122.849 33.9914 118.098 26.881 112.108 20.8916C106.119 14.9022 99.0086 10.1512 91.1831 6.90976C83.3576 3.66834 74.9703 2 66.5 2L66.5 8.44999C74.1232 8.44999 81.6718 9.9515 88.7148 12.8688C95.7577 15.7861 102.157 20.062 107.548 25.4524C112.938 30.8429 117.214 37.2423 120.131 44.2852C123.048 51.3282 124.55 58.8768 124.55 66.5L131 66.5Z" stroke="white" stroke-width="4" mask="url(#path-2-outside-2)"/>
<mask id="path-3-outside-3" maskUnits="userSpaceOnUse" x="64" y="64" width="69" height="69" fill="black">
<rect fill="white" x="64" y="64" width="69" height="69"/>
<path d="M131 66.5C131 74.9703 129.332 83.3576 126.09 91.1831C122.849 99.0086 118.098 106.119 112.108 112.108C106.119 118.098 99.0086 122.849 91.1831 126.09C83.3576 129.332 74.9703 131 66.5 131L66.5 124.55C74.1232 124.55 81.6718 123.048 88.7148 120.131C95.7577 117.214 102.157 112.938 107.548 107.548C112.938 102.157 117.214 95.7577 120.131 88.7148C123.048 81.6718 124.55 74.1232 124.55 66.5L131 66.5Z"/>
</mask>
<path d="M131 66.5C131 74.9703 129.332 83.3576 126.09 91.1831C122.849 99.0086 118.098 106.119 112.108 112.108C106.119 118.098 99.0086 122.849 91.1831 126.09C83.3576 129.332 74.9703 131 66.5 131L66.5 124.55C74.1232 124.55 81.6718 123.048 88.7148 120.131C95.7577 117.214 102.157 112.938 107.548 107.548C112.938 102.157 117.214 95.7577 120.131 88.7148C123.048 81.6718 124.55 74.1232 124.55 66.5L131 66.5Z" fill="black"/>
<path d="M131 66.5C131 74.9703 129.332 83.3576 126.09 91.1831C122.849 99.0086 118.098 106.119 112.108 112.108C106.119 118.098 99.0086 122.849 91.1831 126.09C83.3576 129.332 74.9703 131 66.5 131L66.5 124.55C74.1232 124.55 81.6718 123.048 88.7148 120.131C95.7577 117.214 102.157 112.938 107.548 107.548C112.938 102.157 117.214 95.7577 120.131 88.7148C123.048 81.6718 124.55 74.1232 124.55 66.5L131 66.5Z" stroke="white" stroke-width="4" mask="url(#path-3-outside-3)"/>
<mask id="path-4-outside-4" maskUnits="userSpaceOnUse" x="-2.92866e-06" y="64" width="69" height="69" fill="black">
<rect fill="white" x="-2.92866e-06" y="64" width="69" height="69"/>
<path d="M66.5 131C49.3935 131 32.9877 124.204 20.8916 112.108C8.79551 100.012 2 83.6065 2 66.5L8.45 66.5C8.45 81.8958 14.566 96.6611 25.4524 107.548C36.3389 118.434 51.1042 124.55 66.5 124.55L66.5 131Z"/>
</mask>
<path d="M66.5 131C49.3935 131 32.9877 124.204 20.8916 112.108C8.79551 100.012 2 83.6065 2 66.5L8.45 66.5C8.45 81.8958 14.566 96.6611 25.4524 107.548C36.3389 118.434 51.1042 124.55 66.5 124.55L66.5 131Z" fill="#43C9DC"/>
<path d="M66.5 131C49.3935 131 32.9877 124.204 20.8916 112.108C8.79551 100.012 2 83.6065 2 66.5L8.45 66.5C8.45 81.8958 14.566 96.6611 25.4524 107.548C36.3389 118.434 51.1042 124.55 66.5 124.55L66.5 131Z" stroke="white" stroke-width="4" mask="url(#path-4-outside-4)"/>
</svg>
