<svg width="87" height="34" viewBox="0 0 87 34" fill="none" xmlns="http://www.w3.org/2000/svg">
<path d="M71.3125 10.6761C71.7205 10.6761 72.1285 10.5401 72.4005 10.2001C72.7405 9.92814 72.8765 9.52014 72.8765 9.04414C72.8765 8.63614 72.7405 8.22814 72.4005 7.95614C72.1285 7.61614 71.7205 7.48014 71.3125 7.48014C70.9045 7.48014 70.4965 7.61614 70.2245 7.95614C69.8845 8.22814 69.7485 8.63614 69.7485 9.04414C69.7485 9.99614 70.4285 10.6761 71.3125 10.6761ZM31.8045 21.9641C31.3848 21.9641 30.9692 21.8815 30.5814 21.7209C30.1937 21.5602 29.8413 21.3248 29.5446 21.0281C29.2478 20.7313 29.0124 20.379 28.8518 19.9912C28.6911 19.6034 28.6085 19.1878 28.6085 18.7681C28.6085 17.0001 30.0365 15.5041 31.8045 15.5041C33.5045 15.5041 34.9325 17.0001 34.9325 18.7681C34.9325 20.5361 33.5045 21.9641 31.8045 21.9641ZM31.8045 12.3081C30.6781 12.3031 29.5722 12.609 28.6085 13.1921V5.84814H25.4805V18.7681C25.4805 22.3041 28.3365 25.2281 31.8045 25.2281C35.2045 25.2281 38.0605 22.3041 38.0605 18.7681C38.0605 15.1641 35.2725 12.3081 31.8045 12.3081ZM61.1805 21.9641C60.3447 21.9464 59.5491 21.6018 58.9644 21.0044C58.3797 20.4069 58.0523 19.6041 58.0525 18.7681C58.0525 17.0001 59.4125 15.5041 61.1805 15.5041C62.9485 15.5041 64.3085 17.0001 64.3085 18.7681C64.3085 20.5361 62.9485 21.9641 61.1805 21.9641ZM61.1805 12.3081C60.0772 12.3155 58.9964 12.6209 58.0525 13.1921V5.84814H55.0605V18.7681C55.0605 22.3041 57.8485 25.2281 61.3165 25.2281C64.7845 25.2281 67.5725 22.3041 67.5725 18.7681C67.5725 15.1641 64.8525 12.3081 61.3165 12.3081" fill="#FFB11A"/>
<mask id="mask0" mask-type="alpha" maskUnits="userSpaceOnUse" x="40" y="12" width="13" height="20">
<path d="M40.2363 12.376H52.7483V31.756H40.2363V12.376Z" fill="white"/>
</mask>
<g mask="url(#mask0)">
<path fill-rule="evenodd" clip-rule="evenodd" d="M52.7483 12.376H49.6203V18.836C49.6235 19.3211 49.5162 19.8005 49.3065 20.2379C49.0969 20.6754 48.7904 21.0594 48.4104 21.3608C48.0303 21.6622 47.5866 21.8732 47.1129 21.9777C46.6392 22.0822 46.1479 22.0775 45.6763 21.964C44.3163 21.556 43.3643 20.264 43.3643 18.836V12.376H40.2363V18.836C40.2358 19.9556 40.5232 21.0566 41.071 22.0331C41.6188 23.0096 42.4085 23.8288 43.3643 24.412C44.3107 24.9747 45.3913 25.2717 46.4923 25.2717C47.5934 25.2717 48.674 24.9747 49.6203 24.412V25.296C49.6203 27.064 48.2603 28.492 46.4923 28.492V31.756C49.8923 31.756 52.7483 28.832 52.7483 25.296V12.376Z" fill="#FFB11A"/>
</g>
<mask id="mask1" mask-type="alpha" maskUnits="userSpaceOnUse" x="75" y="5" width="7" height="21">
<path d="M75.1201 5.78003H81.3761V25.16H75.1201V5.78003Z" fill="white"/>
</mask>
<g mask="url(#mask1)">
<path fill-rule="evenodd" clip-rule="evenodd" d="M76.6841 5.78003V12.24H75.1201V15.504H76.6841V25.16H79.7441V15.504H81.3081V12.24H79.7441V5.78003H76.6841Z" fill="#FFB11A"/>
</g>
<path d="M5.14823 22.9161L5.42023 23.5961L6.10023 24.9561C5.76023 23.7321 5.28423 22.5081 4.80823 21.3521L5.14823 22.9161ZM4.80823 21.2841L6.30423 25.1601L6.78023 25.7721L4.74023 20.5361L4.80823 21.2161" fill="#FFB11A"/>
<path fill-rule="evenodd" clip-rule="evenodd" d="M4.74023 20.4681C5.55623 22.3041 6.30423 24.1401 6.91623 25.9081L7.32423 26.3841C6.54305 24.1995 5.68113 22.0447 4.74023 19.9241V20.4681Z" fill="#FFB11A"/>
<path fill-rule="evenodd" clip-rule="evenodd" d="M4.74023 19.8561C5.76023 22.0321 6.64423 24.2761 7.46023 26.5201L7.86823 26.8601C6.95307 24.3252 5.93217 21.8297 4.80823 19.3801V19.8561" fill="#FFB11A"/>
<path fill-rule="evenodd" clip-rule="evenodd" d="M4.74023 19.3799C5.96423 21.8959 7.05223 24.4119 8.07223 26.9959L8.41223 27.2679C7.32423 24.4119 6.10023 21.6919 4.74023 18.9719V19.3799Z" fill="#FFB11A"/>
<path fill-rule="evenodd" clip-rule="evenodd" d="M4.80859 18.972C6.30459 21.828 7.52859 24.684 8.61659 27.404L8.95659 27.54C7.74016 24.4848 6.37861 21.4894 4.87659 18.564V18.972" fill="#FFB11A"/>
<path fill-rule="evenodd" clip-rule="evenodd" d="M4.87598 18.5641C6.43998 21.5561 7.86798 24.6161 9.15998 27.6761L9.43198 27.8801C8.13998 24.4801 6.64398 21.3521 4.94398 18.2241V18.5641" fill="#FFB11A"/>
<path fill-rule="evenodd" clip-rule="evenodd" d="M4.94434 18.224C6.71234 21.352 8.34434 24.616 9.70434 27.948L9.97634 28.084C8.54834 24.616 6.84834 21.216 5.08034 17.884L4.94434 18.224Z" fill="#FFB11A"/>
<path fill-rule="evenodd" clip-rule="evenodd" d="M5.08008 17.8841C6.98408 21.2841 8.68408 24.6841 10.2481 28.1521L10.5201 28.2881C8.82008 24.4801 7.05208 20.8761 5.08008 17.6121V17.8841Z" fill="#FFB11A"/>
<path fill-rule="evenodd" clip-rule="evenodd" d="M5.14844 17.612C7.18844 21.012 9.09244 24.684 10.7924 28.356L11.0644 28.424C9.22844 24.48 7.25644 20.74 5.21644 17.272L5.14844 17.544" fill="#FFB11A"/>
<path fill-rule="evenodd" clip-rule="evenodd" d="M11.3358 28.492H11.6078C9.63582 24.412 7.52782 20.604 5.35182 17L5.21582 17.272C7.43871 20.9093 9.48118 24.6538 11.3358 28.492Z" fill="#FFB11A"/>
<path d="M11.8799 28.56H12.1519C10.1011 24.5533 7.85438 20.6499 5.41992 16.864V17C7.79992 20.74 9.97592 24.616 11.9479 28.56H11.8799Z" fill="#FFB11A"/>
<path d="M12.4239 28.6279H12.6959C10.5122 24.4806 8.12946 20.4413 5.55592 16.5239L5.41992 16.7959C7.93592 20.6039 10.3159 24.4799 12.4239 28.5599" fill="#FFB11A"/>
<path d="M12.9686 28.6281H13.2406C10.915 24.4117 8.39628 20.3047 5.69264 16.3201L5.55664 16.5241C8.48064 20.8761 10.9966 25.0241 13.0366 28.6281" fill="#FFB11A"/>
<path d="M13.5804 28.6281H13.7844C11.2684 24.3441 8.61638 20.1281 5.76038 16.0481L5.69238 16.3201C8.41238 20.2641 11.1324 24.4121 13.5124 28.6281" fill="#FFB11A"/>
<path fill-rule="evenodd" clip-rule="evenodd" d="M14.2601 28.56C11.6687 24.2104 8.90108 19.9682 5.96413 15.844L5.82812 16.048C8.75213 20.128 11.5401 24.276 14.1241 28.56H14.3961" fill="#FFB11A"/>
<path fill-rule="evenodd" clip-rule="evenodd" d="M14.8725 28.4241C12.0845 24.0721 9.09248 19.7881 6.03248 15.6401L5.89648 15.8441C8.95648 19.9241 11.8805 24.1401 14.6005 28.4921H14.8725" fill="#FFB11A"/>
<path fill-rule="evenodd" clip-rule="evenodd" d="M15.3482 28.288C12.4242 23.868 9.36423 19.584 6.16823 15.436L6.03223 15.64C9.63623 20.264 12.7642 24.752 15.1442 28.356L15.3482 28.288Z" fill="#FFB11A"/>
<path fill-rule="evenodd" clip-rule="evenodd" d="M15.62 28.1519H15.892L15.756 27.9479C12.696 23.5959 9.56797 19.3799 6.23597 15.2319L6.16797 15.4359C9.43197 19.5839 12.628 23.8679 15.688 28.1519H15.62ZM16.164 27.9479H16.368L16.164 27.5399C12.9 23.3239 9.77197 19.0399 6.43997 15.0959L6.30397 15.2319C9.70397 19.3799 12.968 23.6639 16.164 27.9479Z" fill="#FFB11A"/>
<path fill-rule="evenodd" clip-rule="evenodd" d="M16.8444 27.608C13.5125 23.3191 10.0891 19.1021 6.57643 14.96L6.44043 15.096C9.90843 19.312 13.3764 23.528 16.6404 27.812C16.7764 27.812 16.8444 27.744 16.8444 27.676" fill="#FFB11A"/>
<path d="M17.3205 27.3361C13.8792 23.0606 10.3653 18.844 6.78053 14.6881L6.64453 14.8921C10.2485 18.9721 13.7845 23.1881 17.2525 27.4721L17.3885 27.3361H17.3205ZM17.8645 26.9961C14.2438 22.803 10.5715 18.6547 6.84853 14.5521L6.71253 14.6881C10.7925 19.1761 14.4645 23.5281 17.5925 27.1321C17.6605 27.1321 17.7285 27.1321 17.7965 26.9961H17.8645ZM18.2725 26.6561L6.98453 14.4161L6.84853 14.5521C10.9965 18.9721 14.8725 23.2561 18.0685 26.7921L18.2725 26.6561ZM18.6805 26.3161C14.8373 22.2718 10.984 18.2371 7.12053 14.2121L6.98453 14.3481L18.5445 26.4521C18.5445 26.4521 18.5445 26.3161 18.6805 26.3161ZM19.0205 25.9081L7.32453 14.0761L7.12053 14.2121L18.8845 26.0441L19.0205 25.9081ZM19.4285 25.4321C15.3485 21.6241 11.4045 17.7481 7.46053 13.8721L7.32453 14.0081C11.6765 18.2921 15.7565 22.3041 19.2925 25.5681L19.4285 25.4321ZM19.7005 25.0241C15.6205 21.2841 11.6085 17.5441 7.66453 13.7361L7.46053 13.8721C11.5405 17.6801 15.4845 21.4881 19.7005 25.1601L19.7685 25.0241H19.7005ZM20.1085 24.5481L7.80053 13.6001L7.66453 13.7361C11.6765 17.4761 15.8245 21.1481 19.9045 24.6841L20.0405 24.5481H20.1085ZM20.3125 24.0041C16.0965 20.6041 12.0165 17.0681 8.00453 13.4641L7.80053 13.6001C11.8805 17.2041 15.9605 20.7401 20.1765 24.2081L20.3125 24.0041Z" fill="#FFB11A"/>
<path fill-rule="evenodd" clip-rule="evenodd" d="M20.3799 23.7321L20.5159 23.5281L20.2439 23.2561C16.1639 20.0601 12.0839 16.7281 8.13991 13.3281L8.00391 13.4641C12.0839 17.0001 16.1639 20.4001 20.4479 23.6641" fill="#FFB11A"/>
<path fill-rule="evenodd" clip-rule="evenodd" d="M20.6526 23.1881L20.7206 22.9841L20.5846 22.9161C16.4366 19.7881 12.3566 16.5241 8.34463 13.1921L8.14062 13.3281C12.2206 16.7281 16.3006 19.9241 20.4486 23.0521L20.6526 23.1881Z" fill="#FFB11A"/>
<path fill-rule="evenodd" clip-rule="evenodd" d="M20.8558 22.4402C17.3878 19.9242 13.0357 16.7282 8.54775 13.0562L8.34375 13.1922C12.4237 16.4562 16.5038 19.6522 20.8558 22.7122V22.4402Z" fill="#FFB11A"/>
<path fill-rule="evenodd" clip-rule="evenodd" d="M21.0605 21.8959C16.7765 19.0399 12.6285 16.0479 8.68447 12.9199L8.48047 13.0559C12.5605 16.2519 16.6405 19.2439 20.9245 22.0999V21.8959" fill="#FFB11A"/>
<path fill-rule="evenodd" clip-rule="evenodd" d="M21.06 21.3519C16.98 18.6319 12.9 15.7759 8.95595 12.7839L8.75195 12.9199C12.7327 15.9686 16.8389 18.8498 21.06 21.5559V21.3519Z" fill="#FFB11A"/>
<path fill-rule="evenodd" clip-rule="evenodd" d="M21.1961 20.8079C17.1161 18.2239 13.0361 15.5719 9.16005 12.6479L8.95605 12.7839C12.911 15.7082 16.9951 18.4536 21.1961 21.0119V20.8079Z" fill="#FFB11A"/>
<path fill-rule="evenodd" clip-rule="evenodd" d="M21.1962 20.4681V20.1961C17.1162 17.8161 13.2402 15.3001 9.43216 12.5801L9.16016 12.6481C12.9002 15.3681 16.9122 17.9521 21.1962 20.4681Z" fill="#FFB11A"/>
<path d="M21.1966 19.9241V19.6521C17.2292 17.4374 13.3714 15.0319 9.63662 12.4441L9.43262 12.5801C13.0366 15.0961 16.9806 17.5441 21.1966 19.9241Z" fill="#FFB11A"/>
<path fill-rule="evenodd" clip-rule="evenodd" d="M21.1287 19.38V19.04C17.2527 17 13.5127 14.688 9.90872 12.24L9.63672 12.376C13.2407 14.756 17.1167 17.136 21.1967 19.312" fill="#FFB11A"/>
<path d="M21.0602 18.768V18.496C17.2522 16.592 13.5802 14.484 10.1802 12.24L9.9082 12.308C13.5108 14.6535 17.2332 16.8098 21.0602 18.768Z" fill="#FFB11A"/>
<path fill-rule="evenodd" clip-rule="evenodd" d="M20.9247 17.952C17.3207 16.184 13.8527 14.28 10.4527 12.104L10.1807 12.24C13.5127 14.28 17.1167 16.32 20.9927 18.224L20.9247 17.952Z" fill="#FFB11A"/>
<path fill-rule="evenodd" clip-rule="evenodd" d="M20.7201 17.4081C17.3201 15.7761 13.9201 14.0081 10.7241 12.0361L10.4521 12.1041C13.6481 14.1441 17.1161 15.9801 20.7881 17.6801V17.4081" fill="#FFB11A"/>
<path fill-rule="evenodd" clip-rule="evenodd" d="M20.5166 16.864C17.2526 15.368 14.1246 13.736 10.9966 11.968L10.7246 12.036C13.9206 13.94 17.2526 15.64 20.6526 17.136L20.5166 16.864Z" fill="#FFB11A"/>
<path fill-rule="evenodd" clip-rule="evenodd" d="M20.2445 16.3201C17.2525 14.9601 14.2605 13.4641 11.4045 11.9001H11.0645C14.0565 13.6681 17.1845 15.2321 20.3805 16.5921L20.2445 16.2521" fill="#FFB11A"/>
<path fill-rule="evenodd" clip-rule="evenodd" d="M19.9723 15.708C17.1843 14.552 14.4643 13.26 11.8123 11.832H11.4043C14.2603 13.396 17.1843 14.824 20.1083 16.048L19.9723 15.708Z" fill="#FFB11A"/>
<path fill-rule="evenodd" clip-rule="evenodd" d="M19.5641 15.1642C17.0481 14.1442 14.6001 12.9882 12.1521 11.7642H11.7441C14.3961 13.1242 17.0481 14.4162 19.8361 15.5042L19.5641 15.1642Z" fill="#FFB11A"/>
<path fill-rule="evenodd" clip-rule="evenodd" d="M19.1567 14.552C16.9127 13.736 14.8047 12.784 12.6967 11.696H12.2207C14.5327 12.92 16.9807 14.008 19.4287 14.96L19.1567 14.552Z" fill="#FFB11A"/>
<path fill-rule="evenodd" clip-rule="evenodd" d="M18.7483 14.212L18.5443 14.008C16.7763 13.328 15.0083 12.512 13.2403 11.696H12.6963C14.704 12.6111 16.7455 13.4503 18.8163 14.212" fill="#FFB11A"/>
<path d="M17.7966 13.3282L13.9886 11.7642H13.3086L18.3406 13.8042L17.7966 13.3282ZM16.3006 12.4442L15.6206 12.1722C15.1446 11.9682 14.6686 11.9002 14.1246 11.8322L17.6606 13.1922C17.1846 12.8522 16.7766 12.6482 16.3006 12.4442Z" fill="#FFB11A"/>
<path d="M20.7882 7.82011L20.5163 7.14011L19.8363 5.78011C20.1762 7.00411 20.6522 8.16011 21.1282 9.38411L20.7882 7.82011ZM21.1282 9.45211L19.5642 5.50811L19.1562 4.96411L21.1962 10.2001L21.1282 9.45211Z" fill="#FFC556"/>
<path fill-rule="evenodd" clip-rule="evenodd" d="M21.1963 10.2001C20.3803 8.43205 19.6323 6.59605 18.9523 4.76005L18.6123 4.35205C19.3603 6.52805 20.2443 8.70405 21.1963 10.8121V10.2001Z" fill="#FFC556"/>
<path fill-rule="evenodd" clip-rule="evenodd" d="M21.196 10.8801C20.1584 8.65037 19.2057 6.38207 18.34 4.08011L18 3.80811C18.884 6.32411 19.972 8.77211 21.06 11.2881V10.7441" fill="#FFC556"/>
<path fill-rule="evenodd" clip-rule="evenodd" d="M21.1284 11.288C19.9724 8.84002 18.8164 6.25602 17.8644 3.67202C17.7527 3.60127 17.6394 3.53325 17.5244 3.46802C18.6124 6.25602 19.7684 9.04402 21.1284 11.764V11.288Z" fill="#FFC556"/>
<path fill-rule="evenodd" clip-rule="evenodd" d="M21.0605 11.7639C19.7005 9.04393 18.4765 6.18793 17.3205 3.33193L16.9805 3.12793C18.2045 6.18793 19.5645 9.24793 21.0605 12.1039V11.7639Z" fill="#FFC556"/>
<path fill-rule="evenodd" clip-rule="evenodd" d="M21.0605 12.172C19.4965 9.17996 18.0685 6.05196 16.7765 2.99196L16.4365 2.85596C17.7965 6.25596 19.3605 9.45196 20.9245 12.512L21.0605 12.172Z" fill="#FFC556"/>
<path fill-rule="evenodd" clip-rule="evenodd" d="M20.924 12.512C19.224 9.31598 17.66 6.05198 16.164 2.71998L15.96 2.58398C17.388 6.11998 19.02 9.51998 20.856 12.784L20.924 12.512Z" fill="#FFC556"/>
<path fill-rule="evenodd" clip-rule="evenodd" d="M20.856 12.852C18.952 9.452 17.252 6.052 15.688 2.516L15.416 2.448C17.0236 6.09589 18.8166 9.6592 20.788 13.124L20.856 12.852Z" fill="#FFC556"/>
<path fill-rule="evenodd" clip-rule="evenodd" d="M20.7881 13.124C18.7481 9.65601 16.8441 6.05201 15.1441 2.31201H14.8721C16.7081 6.18801 18.6121 9.92801 20.7201 13.396V13.124" fill="#FFC556"/>
<path fill-rule="evenodd" clip-rule="evenodd" d="M14.6001 2.24403L14.3281 2.17603C16.3001 6.25603 18.4081 10.132 20.5841 13.736L20.7201 13.396C18.4992 9.78089 16.4567 6.05909 14.6001 2.24403Z" fill="#FFC556"/>
<path fill-rule="evenodd" clip-rule="evenodd" d="M14.0562 2.10815H13.7842C15.8922 6.25615 18.1362 10.2682 20.4482 13.9402L20.5842 13.6682C18.2042 9.92815 16.0282 6.05215 14.0562 2.10815Z" fill="#FFC556"/>
<path fill-rule="evenodd" clip-rule="evenodd" d="M13.5122 2.04004H13.2402C15.4842 6.32404 17.8642 10.404 20.3802 14.144L20.5162 13.94C17.8642 10.064 15.6202 6.12004 13.4442 2.04004" fill="#FFC556"/>
<path d="M12.9003 2.04004H12.6963C15.0763 6.46004 17.6603 10.608 20.2443 14.416L20.3803 14.212C17.4563 9.79204 14.9403 5.57604 12.9003 2.04004Z" fill="#FFC556"/>
<path d="M12.3567 2.04004H12.2207C14.6687 6.39204 17.3887 10.608 20.2447 14.62L20.3127 14.416C17.5927 10.404 14.8727 6.25604 12.4247 2.04004" fill="#FFC556"/>
<path fill-rule="evenodd" clip-rule="evenodd" d="M11.6084 2.17615C14.2458 6.5051 17.0588 10.7246 20.0404 14.8242L20.1764 14.6202C17.1844 10.5402 14.4644 6.46015 11.8124 2.10815H11.6084" fill="#FFC556"/>
<path fill-rule="evenodd" clip-rule="evenodd" d="M11.0645 2.24414C13.8525 6.66414 16.7765 10.8801 19.9045 15.0281L20.0405 14.8241C16.9805 10.7441 14.0565 6.52814 11.3365 2.24414H11.0645Z" fill="#FFC556"/>
<path fill-rule="evenodd" clip-rule="evenodd" d="M10.5205 2.44813C13.456 6.81405 16.5404 11.0779 19.7685 15.2321L19.9045 15.0961C16.7085 10.8801 13.5805 6.66413 10.7925 2.38013H10.5205" fill="#FFC556"/>
<path fill-rule="evenodd" clip-rule="evenodd" d="M10.2479 2.51611L10.0439 2.58411L10.1799 2.78811C12.6959 6.39211 15.8919 10.8121 19.6999 15.4361L19.7679 15.2321C16.5039 11.1521 13.3759 6.93611 10.3159 2.65211L10.2479 2.51611Z" fill="#FFC556"/>
<path fill-rule="evenodd" clip-rule="evenodd" d="M9.704 2.71997L9.5 2.78797L9.772 3.19597C12.9 7.41197 16.164 11.56 19.496 15.64L19.632 15.436C16.3 11.356 12.9 7.07197 9.704 2.71997Z" fill="#FFC556"/>
<path fill-rule="evenodd" clip-rule="evenodd" d="M9.02441 3.05994C12.0164 6.86794 15.4844 11.2199 19.3604 15.8439L19.4964 15.6399C16.0063 11.4974 12.6055 7.28047 9.29641 2.99194L9.02441 3.05994Z" fill="#FFC556"/>
<path d="M8.54848 3.40016L19.2245 15.9802L19.3605 15.8442C15.7762 11.7108 12.2624 7.51683 8.82048 3.26416L8.61648 3.33216L8.54848 3.40016ZM8.20848 3.67216L19.0885 16.1842L19.2925 15.9802C15.6152 11.8767 11.9883 7.72835 8.41248 3.53616C8.27648 3.53616 8.20848 3.60416 8.20848 3.67216ZM7.73248 4.01216L19.0205 16.3202L19.1565 16.1842L7.93648 3.94416L7.73248 4.01216ZM7.32448 4.42016L18.8845 16.5242C18.8845 16.4562 18.8845 16.3882 19.0205 16.3202L7.39248 4.28416L7.25648 4.42016H7.32448ZM6.84848 4.82816L18.6125 16.6602L18.7485 16.5242L7.05248 4.62416L6.84848 4.82816ZM6.50848 5.23616L18.4765 16.7962L18.6125 16.6602L6.64448 5.10016L6.50848 5.23616ZM6.16848 5.71216C10.2485 9.38416 14.3285 13.1922 18.2725 16.9322L18.4765 16.7962C14.4661 12.9832 10.4084 9.22024 6.30448 5.50816L6.16848 5.71216ZM5.89648 6.18816L18.1365 17.0682L18.2725 17.0002C14.2605 13.2602 10.1805 9.52016 6.10048 5.98416L5.96448 6.18816" fill="#FFC556"/>
<path fill-rule="evenodd" clip-rule="evenodd" d="M5.62402 6.66396C9.77202 10.064 13.92 13.668 17.932 17.272L18.136 17.136C14.056 13.464 9.97602 9.92796 5.76002 6.45996L5.62402 6.66396Z" fill="#FFC556"/>
<path d="M5.48782 7.00415L5.41982 7.20815L5.69182 7.41215C9.09182 10.1321 13.3078 13.5322 17.7278 17.4082L17.9318 17.2722C13.8756 13.7397 9.72614 10.3159 5.48782 7.00415ZM5.28382 7.48015L5.21582 7.75215L5.35182 7.82015C9.49982 10.9482 13.5798 14.1441 17.5918 17.5441L17.7278 17.4082C13.7838 14.0082 9.63582 10.7442 5.48782 7.61615L5.28382 7.48015Z" fill="#FFC556"/>
<path fill-rule="evenodd" clip-rule="evenodd" d="M5.0127 8.22793C8.5487 10.7439 12.9007 13.9399 17.3887 17.6799L17.5927 17.5439C13.5127 14.2119 9.3647 11.0839 5.0807 8.02393V8.22793" fill="#FFC556"/>
<path fill-rule="evenodd" clip-rule="evenodd" d="M4.87598 8.84011C9.06813 11.6761 13.1511 14.6703 17.116 17.8161L17.388 17.6801C13.308 14.4841 9.22798 11.4241 4.94398 8.56812V8.84011" fill="#FFC556"/>
<path fill-rule="evenodd" clip-rule="evenodd" d="M4.80859 9.38406C8.95659 12.1041 12.9686 14.8921 16.9806 17.8841L17.1846 17.8161C13.1726 14.7561 9.02459 11.8321 4.87659 9.11206V9.38406" fill="#FFC556"/>
<path fill-rule="evenodd" clip-rule="evenodd" d="M4.74023 9.92812C8.82023 12.4441 12.9002 15.1641 16.7762 18.0881L16.9802 17.8841C13.0362 14.9601 8.95623 12.2401 4.74023 9.72412V9.92812Z" fill="#FFC556"/>
<mask id="mask2" mask-type="alpha" maskUnits="userSpaceOnUse" x="4" y="10" width="13" height="9">
<path d="M4.74023 10.2681H16.7762V18.1561H4.74023V10.2681Z" fill="white"/>
</mask>
<g mask="url(#mask2)">
<path fill-rule="evenodd" clip-rule="evenodd" d="M4.74023 10.268V10.54C8.82023 12.852 12.6962 15.436 16.5042 18.156L16.7762 18.088C13.0362 15.368 9.02423 12.784 4.74023 10.2" fill="#FFC556"/>
</g>
<path d="M4.74023 10.812V11.084C8.70626 13.2765 12.5641 15.6593 16.3002 18.224C16.3685 18.2023 16.4365 18.1796 16.5042 18.156C12.9002 15.572 8.88823 13.124 4.74023 10.812Z" fill="#FFC556"/>
<path d="M4.74023 11.356L4.80823 11.628C8.68423 13.668 12.4242 15.912 16.0282 18.428L16.3002 18.292C12.6962 15.844 8.82023 13.532 4.74023 11.356Z" fill="#FFC556"/>
<path fill-rule="evenodd" clip-rule="evenodd" d="M4.87598 11.9001V12.1721C8.61598 14.0761 12.288 16.2521 15.756 18.4961L16.028 18.3601C12.56 16.1161 8.81998 13.9401 4.87598 11.9001Z" fill="#FFC556"/>
<path d="M5.01234 12.7161C8.27634 14.3481 11.8123 16.2521 15.4843 18.5641L15.7563 18.4961C12.3563 16.3201 8.82034 14.2801 4.94434 12.4441L5.01234 12.7161Z" fill="#FFC556"/>
<path fill-rule="evenodd" clip-rule="evenodd" d="M5.21608 13.328C8.61608 14.892 12.0161 16.728 15.2121 18.632H15.4841C12.2881 16.592 8.82008 14.756 5.08008 12.988L5.21608 13.328Z" fill="#FFC556"/>
<path fill-rule="evenodd" clip-rule="evenodd" d="M5.42018 13.8721C8.61618 15.3681 11.8122 16.9321 14.9402 18.7681L15.2122 18.6321C12.0162 16.7961 8.68418 15.0961 5.28418 13.6001L5.42018 13.8721Z" fill="#FFC556"/>
<path fill-rule="evenodd" clip-rule="evenodd" d="M5.69228 14.416C8.68428 15.776 11.6763 17.204 14.5323 18.836L14.8723 18.768C11.8123 17.068 8.75228 15.504 5.48828 14.144L5.69228 14.416Z" fill="#FFC556"/>
<path fill-rule="evenodd" clip-rule="evenodd" d="M5.96377 14.96C8.61577 16.116 11.4038 17.408 14.1238 18.904L14.5318 18.836C11.6758 17.272 8.75177 15.912 5.75977 14.688L5.96377 14.96Z" fill="#FFC556"/>
<path fill-rule="evenodd" clip-rule="evenodd" d="M6.37259 15.5719C8.868 16.5999 11.3182 17.7343 13.7166 18.9719L14.1246 18.9039C11.5406 17.5439 8.82059 16.3199 6.10059 15.2319L6.37259 15.5719Z" fill="#FFC556"/>
<path fill-rule="evenodd" clip-rule="evenodd" d="M6.77981 16.1161C8.88781 16.9321 11.0638 17.8841 13.2398 18.9721H13.7158C11.3358 17.7481 8.95581 16.7281 6.50781 15.7761L6.77981 16.1161Z" fill="#FFC556"/>
<path fill-rule="evenodd" clip-rule="evenodd" d="M7.12012 16.5239L7.32412 16.7279C9.09212 17.4079 10.8601 18.0879 12.6961 18.9719H13.2401C11.2314 18.0798 9.18995 17.2633 7.12012 16.5239Z" fill="#FFC556"/>
<path d="M8.14032 17.3401L11.9483 18.9041L12.6283 18.9721L7.52832 16.9321L8.14032 17.3401ZM9.70432 18.2921L10.3843 18.5641L11.8123 18.9041L8.41232 17.5441C8.75232 17.8161 9.22832 18.0881 9.70432 18.2241" fill="#FFC556"/>
<path fill-rule="evenodd" clip-rule="evenodd" d="M69.4766 25.024H72.6046V12.104H69.4766V25.024Z" fill="#FFB11A"/>
</svg>
