<svg width="123" height="15" viewBox="0 0 123 15" fill="none" xmlns="http://www.w3.org/2000/svg">
<path d="M109.142 12.1849C109.803 12.8847 113.433 16.2391 119.131 12.3461C123.251 9.13752 123.148 2.18122 122.752 0.0805455C122.614 0.386264 117.829 10.866 109.142 12.1849ZM122.751 0.0787674C122.701 0.0579203 117.4 -0.664751 112.16 2.71028C108.906 4.80607 108.476 7.87348 108.625 9.91742C116.242 9.06497 122.579 0.319096 122.751 0.0787674Z" fill="#97C554"/>
<path d="M122.751 0.0787674C122.701 0.0579203 117.4 -0.664751 112.16 2.71028C108.906 4.80607 108.476 7.87348 108.625 9.91742C116.242 9.06498 122.579 0.319096 122.751 0.0787674Z" fill="#709B30"/>
<path d="M8.49764 11.7759H2.5638V8.61547H8.49764C9.98109 8.61547 10.7389 9.32495 10.7389 10.244C10.7389 11.1309 9.99722 11.7759 8.49764 11.7759ZM8.30414 6.92239H2.5638V4.26184H8.30414C9.86822 4.26184 10.481 4.81007 10.481 5.56793C10.481 6.26128 9.77147 6.92239 8.30414 6.92239ZM9.81985 7.72862C12.3192 7.64799 13.2221 6.4064 13.2221 5.05194C13.2221 3.56848 12.045 2.34302 9.17487 2.34302H0V13.6624H9.44899C11.8032 13.6624 13.5607 12.6789 13.5607 10.5665C13.5607 9.06695 12.5771 7.79311 9.81985 7.72862ZM16.5889 2.34302V13.6624H19.1527V2.34302H16.5889ZM29.5497 4.48758H35.1933V2.34302H21.3423V4.48758H26.9859V13.6624H29.5497V4.48758ZM37.3829 2.34302V13.6624H39.9467V9.24432H45.9612V7.39H39.9467V4.29409H49.7182V2.34302H37.3829ZM51.7949 2.34302V13.6624H54.3587V2.34302H51.7949ZM60.3699 5.10032L68.8675 13.6624H71.7699V2.34302H69.2384V10.502L61.0794 2.34302H57.8222V13.6624H60.3699V5.10032ZM75.2334 2.34302V13.6624H87.7783V11.7598H77.7972V8.64772H83.7794V6.89014H77.7972V4.29409H87.7783V2.34302H75.2334ZM104.948 2.34302H101.561L97.2401 6.32578L92.951 2.34302H89.5165L95.547 7.92211L89.2907 13.6624H92.6769L97.2079 9.48619L101.723 13.6624H105.173L98.9009 7.90599L104.948 2.34302Z" fill="#01131D"/>
</svg>
