<svg width="95" height="16" viewBox="0 0 95 16" fill="none" xmlns="http://www.w3.org/2000/svg">
<path d="M18.4005 3.9152C18.9929 2.88021 19.565 1.83394 20.1656 0.803467H23.3782C23.425 0.805834 23.4715 0.813151 23.5167 0.825296C23.4098 0.98713 23.3203 1.15875 23.2262 1.32736C22.4514 2.71788 21.6788 4.10915 20.9086 5.50118C20.5849 6.06797 20.2838 6.64756 19.9556 7.21135L19.9233 7.22264L19.9172 7.2934C18.4068 10.0032 16.9013 12.715 15.4009 15.4288C12.4518 15.4318 9.50238 15.4318 6.55273 15.4288C6.72059 15.078 6.91931 14.743 7.10598 14.4021C7.94601 12.8575 8.80788 11.3265 9.63587 9.78188C11.4479 9.77887 13.2599 9.77887 15.072 9.78188C16.1913 7.83234 17.2865 5.86775 18.3975 3.9152H18.4005Z" fill="#235FFF"/>
<path d="M8.09419 0.754639H16.9883C16.9829 0.872278 16.9423 0.985575 16.8716 1.07981C16.5705 1.59618 16.2996 2.13362 16.0037 2.64998C15.5852 3.39141 15.1938 4.14638 14.7685 4.8848C14.4991 5.41622 14.195 5.93108 13.9074 6.45346C12.1792 6.45346 10.451 6.45346 8.72271 6.45346C8.63239 6.45346 8.54281 6.45798 8.45249 6.46325C8.37722 6.66197 8.25226 6.83584 8.1514 7.02252C8.01968 7.23629 7.91279 7.46436 7.78257 7.67813C7.64482 7.96567 7.45438 8.2231 7.31588 8.50989C7.02985 8.99539 6.76264 9.48842 6.48263 9.97919C6.19057 10.481 5.90504 10.9898 5.62603 11.5057C5.50796 11.6885 5.39918 11.8772 5.30011 12.071C4.71525 13.0887 4.1492 14.1154 3.56359 15.1323C3.51392 15.2416 3.44849 15.343 3.36939 15.4334C2.36827 15.4266 1.36716 15.4334 0.366044 15.4334C0.242742 15.4357 0.12017 15.4529 0.000976562 15.4846C0.000976562 15.2076 0.186145 14.9855 0.311096 14.7529C0.46164 14.4405 0.662615 14.1508 0.813911 13.8376C2.01374 11.6909 3.20078 9.53659 4.39685 7.38834C4.66782 6.92165 4.90041 6.44518 5.1729 5.98753C5.51313 5.38536 5.83002 4.76963 6.18455 4.17423C6.29746 3.92508 6.44951 3.69701 6.5737 3.45388C7.0148 2.6688 7.44761 1.8792 7.8872 1.09411C7.93935 0.971506 8.00908 0.857148 8.09419 0.754639Z" fill="#EB4A60"/>
<path fill-rule="evenodd" clip-rule="evenodd" d="M41.3505 0.464844H39.3806V2.33384H41.3505V0.464844ZM51.5559 0.763685V15.6073H54.1279V5.16934L58.8196 12.0439L63.4737 5.006V15.6073H66.121V0.763685H63.2735L58.8384 7.61567L54.3538 0.763685H51.5559ZM39.5251 4.59197H41.2059V15.7322H39.5251V4.59197ZM44.4177 1.39975H46.1738V4.59202H49.6363V6.14789H46.1738V12.7658C46.1708 13.0208 46.23 13.2727 46.3462 13.4997C46.6435 14.0642 47.4512 14.7341 49.6363 13.9513V15.3935C49.6363 15.3935 47.6416 16.5226 45.8351 15.4944C45.8351 15.4944 44.9379 15.1135 44.5607 13.8279C44.4628 13.4835 44.4146 13.1268 44.4177 12.7688V6.12305L42.9371 6.14789V4.59202H44.4298L44.4177 1.39975ZM68.8304 15.7074V0.763685H79.9081V3.18743H71.5402V6.96307H78.9921V9.33413H71.553V13.2987H79.9955V15.7074H68.8304ZM81.0433 0.763685H84.2236L87.8742 6.01013L91.4963 0.763685H94.6765L89.4828 8.05149L95.0002 15.6946H91.6506L87.887 10.1124L83.9413 15.7074H80.7611L86.1994 8.11773L81.0433 0.763685ZM36.6897 4.35417C36.8403 7.02632 34.3811 7.95442 34.3811 7.95442C37.8436 8.93295 37.5305 11.6555 37.5305 11.6555C37.2226 15.5508 32.8509 15.6449 32.8509 15.6449H25.3801L25.3613 0.801347H32.3006C32.7987 0.798333 33.2949 0.86213 33.776 0.991032C36.6694 1.7844 36.6897 4.35417 36.6897 4.35417ZM31.584 2.33388H27.1551V7.50279H31.8219C31.8219 7.50279 35.0104 7.55924 34.9585 4.76817C34.9585 4.76817 35.0586 2.32184 31.584 2.33388ZM27.1551 14.0763H32.5746C32.5746 14.0763 35.7631 14.1327 35.7112 11.3416C35.7112 11.3416 35.8113 8.89532 32.3368 8.90811H27.1551V14.0763Z" fill="#020202"/>
</svg>
