<svg width="91" height="28" viewBox="0 0 91 28" fill="none" xmlns="http://www.w3.org/2000/svg">
<g clip-path="url(#clip0)">
<path d="M3.80505 5.46271L6.25601 2.9382L8.70827 5.46404L10.1344 3.99505L6.25601 0L2.37891 3.99371L3.80505 5.46271Z" fill="#F3BA2F"/>
<path d="M2.79819 6.49973L1.37207 5.03076L-0.0541165 6.4998L1.372 7.96877L2.79819 6.49973Z" fill="#F3BA2F"/>
<path d="M3.80519 7.53736L6.25615 10.0619L8.70831 7.53613L10.1353 9.00431L10.1346 9.00513L6.25615 13.0001L2.37895 9.00646L2.37695 9.00441L3.80519 7.53736Z" fill="#F3BA2F"/>
<path d="M11.1402 7.96953L12.5664 6.50049L11.1403 5.03152L9.7141 6.50056L11.1402 7.96953Z" fill="#F3BA2F"/>
<path d="M7.70206 6.49921H7.70266L6.25549 5.00854L5.18601 6.11016H5.18591L5.0631 6.23676L4.80961 6.49787L4.80762 6.49992L4.80961 6.50208L6.25549 7.99141L7.70266 6.50075L7.70336 6.49992L7.70206 6.49921Z" fill="#F3BA2F"/>
<path d="M15 3.15015H18.1018C18.8716 3.15015 19.4538 3.35365 19.8483 3.76066C20.1536 4.07588 20.3062 4.46656 20.3062 4.93261V4.95233C20.3062 5.14926 20.2826 5.3233 20.2351 5.47423C20.1876 5.62537 20.1242 5.76142 20.045 5.88289C19.9659 6.00446 19.874 6.11114 19.7696 6.20293C19.665 6.29493 19.5526 6.37378 19.4323 6.43929C19.8193 6.59043 20.1239 6.79548 20.346 7.05484C20.568 7.3143 20.6791 7.67377 20.6791 8.13325V8.15286C20.6791 8.46808 20.6203 8.74377 20.5026 8.98023C20.3849 9.21649 20.2162 9.41353 19.9966 9.57114C19.777 9.72874 19.513 9.84682 19.2044 9.92568C18.8957 10.0044 18.5537 10.0438 18.1784 10.0438H15V3.15015ZM17.7917 5.9371C18.1168 5.9371 18.375 5.87981 18.5661 5.76481C18.7573 5.64991 18.8529 5.46438 18.8529 5.2084V5.18869C18.8529 4.959 18.7699 4.78342 18.6043 4.66186C18.4385 4.54039 18.1995 4.4796 17.8873 4.4796H16.434V5.9371H17.7917ZM18.1837 8.7144C18.5088 8.7144 18.7636 8.65382 18.9486 8.53225C19.1334 8.41079 19.2259 8.22196 19.2259 7.96589V7.94628C19.2259 7.71649 19.1398 7.53434 18.9677 7.39963C18.7956 7.26522 18.5184 7.19787 18.1359 7.19787H16.434V8.7145H18.1837V8.7144Z" fill="#F3BA2F"/>
<path d="M22.3164 3.15015H23.7889V10.044H22.3164V3.15015Z" fill="#F3BA2F"/>
<path d="M26.0195 3.15015H27.377L30.5131 7.3948V3.15015H31.9663V10.044H30.7139L27.4727 5.66152V10.044H26.0195V3.15015Z" fill="#F3BA2F"/>
<path d="M36.4232 3.10083H37.7808L40.6492 10.0438H39.1098L38.4979 8.49772H35.6678L35.056 10.0438H33.5547L36.4232 3.10083ZM37.9721 7.1582L37.0828 4.92273L36.1938 7.1582H37.9721Z" fill="#F3BA2F"/>
<path d="M42.2383 3.15015H43.596L46.7319 7.3948V3.15015H48.1852V10.044H46.9328L43.6915 5.66152V10.044H42.2383V3.15015Z" fill="#F3BA2F"/>
<path d="M53.4842 10.1621C52.9932 10.1621 52.5376 10.0701 52.1169 9.88637C51.6961 9.70268 51.3329 9.45143 51.0269 9.13293C50.7209 8.81453 50.4818 8.43863 50.3099 8.00533C50.1378 7.57193 50.0518 7.10907 50.0518 6.61663V6.59702C50.0518 6.10458 50.1378 5.64346 50.3099 5.21335C50.4819 4.78334 50.7209 4.4058 51.0269 4.08082C51.3328 3.75585 51.6994 3.49967 52.1263 3.3126C52.5533 3.12552 53.0253 3.03198 53.5415 3.03198C53.8536 3.03198 54.1388 3.05837 54.397 3.11074C54.6551 3.16341 54.8893 3.23549 55.0998 3.32738C55.3103 3.41938 55.5044 3.53099 55.6832 3.66221C55.8613 3.79364 56.0272 3.938 56.1802 4.09561L55.2434 5.20842C54.9817 4.96559 54.7158 4.77502 54.4449 4.63723C54.1739 4.49944 53.8697 4.43044 53.5318 4.43044C53.2513 4.43044 52.9916 4.48629 52.7527 4.5979C52.5137 4.70951 52.308 4.86373 52.1359 5.06067C51.9639 5.2576 51.8301 5.48585 51.7343 5.74511C51.6389 6.00458 51.5911 6.2819 51.5911 6.57731V6.59692C51.5911 6.89232 51.6389 7.1715 51.7343 7.43394C51.8301 7.69669 51.9621 7.92637 52.1312 8.12331C52.3 8.32024 52.504 8.47631 52.743 8.59121C52.9822 8.7062 53.2451 8.7635 53.5318 8.7635C53.9144 8.7635 54.2376 8.69132 54.5021 8.54685C54.7667 8.40259 55.0297 8.20555 55.291 7.95595L56.228 8.93096C56.0559 9.12143 55.8771 9.29218 55.6926 9.44301C55.5077 9.59415 55.3054 9.72373 55.0854 9.83216C54.8656 9.94038 54.6247 10.0226 54.3637 10.0783C54.1021 10.134 53.8091 10.1621 53.4842 10.1621Z" fill="#F3BA2F"/>
<path d="M57.9609 3.15015H62.9995V4.49942H59.4143V5.89788H62.5694V7.24705H59.4143V8.69479H63.0476V10.044H57.9609V3.15015Z" fill="#F3BA2F"/>
</g>
<path d="M15 14.4H23.172V16.38H17.25V19.872H22.704V21.834H17.25V27H15V14.4Z" fill="black"/>
<path d="M30.0202 27.18C29.0122 27.18 28.1422 26.976 27.4102 26.568C26.6782 26.16 26.1202 25.59 25.7362 24.858C25.3522 24.114 25.1602 23.262 25.1602 22.302V14.4H27.4102V22.266C27.4102 23.202 27.6262 23.922 28.0582 24.426C28.5022 24.918 29.1562 25.164 30.0202 25.164C30.8842 25.164 31.5322 24.918 31.9642 24.426C32.4082 23.922 32.6302 23.202 32.6302 22.266V14.4H34.8802V22.302C34.8802 23.262 34.6882 24.114 34.3042 24.858C33.9202 25.59 33.3622 26.16 32.6302 26.568C31.8982 26.976 31.0282 27.18 30.0202 27.18Z" fill="black"/>
<path d="M39.8982 16.38H36.7122V14.4H45.3342V16.38H42.1482V27H39.8982V16.38Z" fill="black"/>
<path d="M52.028 27.18C51.02 27.18 50.15 26.976 49.418 26.568C48.686 26.16 48.128 25.59 47.744 24.858C47.36 24.114 47.168 23.262 47.168 22.302V14.4H49.418V22.266C49.418 23.202 49.634 23.922 50.066 24.426C50.51 24.918 51.164 25.164 52.028 25.164C52.892 25.164 53.54 24.918 53.972 24.426C54.416 23.922 54.638 23.202 54.638 22.266V14.4H56.888V22.302C56.888 23.262 56.696 24.114 56.312 24.858C55.928 25.59 55.37 26.16 54.638 26.568C53.906 26.976 53.036 27.18 52.028 27.18Z" fill="black"/>
<path d="M59.332 14.4H63.706C64.666 14.4 65.5 14.568 66.208 14.904C66.928 15.24 67.48 15.72 67.864 16.344C68.26 16.956 68.458 17.676 68.458 18.504C68.458 19.308 68.272 19.998 67.9 20.574C67.528 21.15 66.988 21.648 66.28 22.068V22.158L69.106 27H66.586L64.048 22.554H61.582V27H59.332V14.4ZM63.868 20.574C64.588 20.574 65.158 20.394 65.578 20.034C65.998 19.662 66.208 19.14 66.208 18.468C66.208 17.808 65.998 17.298 65.578 16.938C65.17 16.566 64.6 16.38 63.868 16.38H61.582V20.574H63.868Z" fill="black"/>
<path d="M70.8984 14.4H78.8544V16.38H73.1484V19.71H78.3684V21.69H73.1484V25.02H79.0524V27H70.8984V14.4Z" fill="black"/>
<path d="M85.4326 27.18C84.5806 27.18 83.7946 27.012 83.0746 26.676C82.3546 26.34 81.7726 25.866 81.3286 25.254C80.8846 24.642 80.6326 23.934 80.5726 23.13L80.6446 23.04L82.7506 22.842C82.8226 23.598 83.1106 24.186 83.6146 24.606C84.1306 25.026 84.7606 25.236 85.5046 25.236C86.2006 25.236 86.7706 25.062 87.2146 24.714C87.6586 24.354 87.8806 23.85 87.8806 23.202C87.8806 22.53 87.6406 22.026 87.1606 21.69C86.6806 21.354 85.8946 21.066 84.8026 20.826C83.6026 20.55 82.6726 20.154 82.0126 19.638C81.3646 19.11 81.0406 18.378 81.0406 17.442C81.0406 16.794 81.2206 16.23 81.5806 15.75C81.9406 15.258 82.4326 14.88 83.0566 14.616C83.6806 14.352 84.3826 14.22 85.1626 14.22C86.4466 14.22 87.4666 14.538 88.2226 15.174C88.9906 15.81 89.4346 16.668 89.5546 17.748L89.4646 17.856L87.4846 17.964C87.4006 17.328 87.1606 16.848 86.7646 16.524C86.3686 16.188 85.8286 16.02 85.1446 16.02C84.5686 16.02 84.1006 16.14 83.7406 16.38C83.3806 16.62 83.2006 16.932 83.2006 17.316C83.2006 17.808 83.4286 18.18 83.8846 18.432C84.3526 18.684 85.1326 18.942 86.2246 19.206C87.4486 19.494 88.4026 19.938 89.0866 20.538C89.7706 21.138 90.1126 21.984 90.1126 23.076C90.1126 23.904 89.9086 24.63 89.5006 25.254C89.0926 25.866 88.5286 26.34 87.8086 26.676C87.1006 27.012 86.3086 27.18 85.4326 27.18Z" fill="black"/>
<defs>
<clipPath id="clip0">
<rect width="63" height="13" fill="white"/>
</clipPath>
</defs>
</svg>
