<svg width="110" height="25" viewBox="0 0 110 25" fill="none" xmlns="http://www.w3.org/2000/svg">
<path d="M31.0769 12.5377C31.3951 12.6136 31.8024 12.6445 32.3905 12.6445C34.2646 12.6445 35.5051 11.7954 35.5051 10.2663C35.5051 8.88813 34.4442 8.15268 32.6505 8.15268C31.8651 8.15268 31.341 8.20995 31.0769 8.26359V12.5377ZM27.6328 5.87268C28.726 5.70268 30.2874 5.5545 32.621 5.5545C34.7742 5.5545 36.2955 5.99995 37.2892 6.76086C38.2546 7.47586 38.9492 8.71086 38.9492 10.2213C38.9492 11.6122 38.4878 12.8736 37.5737 13.6845C36.3633 14.7831 34.5974 15.2945 32.3965 15.2945C31.8737 15.2945 31.4124 15.2554 31.0769 15.1972V20.3922H27.6328V5.87268ZM41.0905 4.76904H44.5692V11.0545H44.6128C44.9919 10.5545 45.4564 10.18 46.0387 9.88586C46.5601 9.60859 47.2174 9.45041 47.8614 9.45041C50.0355 9.45041 51.9419 10.8504 51.9419 14.2413V20.3922H48.4637V14.7327C48.4637 13.2022 47.8833 12.23 46.5283 12.23C45.5064 12.23 44.9187 12.8918 44.6751 13.4563C44.5787 13.6631 44.5692 13.9172 44.5692 14.1563V20.3922H41.0905V4.76904ZM61.7555 13.7713C61.7601 13.1618 61.4051 11.6995 59.6737 11.6995C58.1128 11.6995 57.4824 12.9527 57.3674 13.7713H61.7555ZM57.4051 16.1363C57.5251 17.4181 59.0196 18.0859 60.6642 18.0859C61.8905 18.0859 62.8833 17.9431 63.9042 17.6036L64.3769 19.9172C63.146 20.4186 61.7442 20.6545 60.1937 20.6545C56.3405 20.6545 54.1028 18.4849 54.1028 15.159C54.1028 12.7386 55.736 9.44995 59.8564 9.44995C63.706 9.44995 65.0019 12.4336 65.0019 14.8795C65.0019 15.3959 64.9328 15.9104 64.8719 16.1363H57.4051ZM67.0978 13.1895C67.0978 11.805 67.0587 10.649 67.011 9.71222H69.9246L70.0633 11.225H70.1414C70.561 10.5868 71.5314 9.44995 73.5892 9.44995C75.0415 9.44995 76.2192 10.2109 76.7119 11.4045H76.7555C77.1992 10.7886 77.6946 10.3427 78.2428 10.0281C78.8687 9.64904 79.5683 9.44995 80.4469 9.44995C82.5301 9.44995 84.3205 10.869 84.3205 14.269V20.3922H80.9628V14.7559C80.9628 13.0959 80.3446 12.225 79.1983 12.225C78.3387 12.225 77.7546 12.8077 77.5205 13.4468C77.4287 13.7131 77.3883 14.0622 77.3883 14.3172V20.3922H74.0305V14.6399C74.0305 13.1049 73.4164 12.225 72.3028 12.225C71.3119 12.225 70.7833 12.9913 70.5833 13.494C70.4742 13.7777 70.456 14.0804 70.456 14.3477V20.3922H67.0978V13.1895ZM94.1333 13.7713C94.1378 13.1618 93.7833 11.6995 92.0519 11.6995C90.4905 11.6995 89.8601 12.9527 89.7451 13.7713H94.1333ZM89.7833 16.1363C89.9028 17.4181 91.3974 18.0859 93.0424 18.0859C94.2683 18.0859 95.261 17.9431 96.2819 17.6036L96.7551 19.9172C95.5237 20.4186 94.1219 20.6545 92.5714 20.6545C88.7183 20.6545 86.481 18.4849 86.481 15.159C86.481 12.7386 88.1137 9.44995 92.2342 9.44995C96.0842 9.44995 97.3796 12.4336 97.3796 14.8795C97.3796 15.3959 97.3105 15.9104 97.2496 16.1363H89.7828H89.7833Z" fill="#003299"/>
<mask id="mask0" mask-type="alpha" maskUnits="userSpaceOnUse" x="97" y="9" width="13" height="12">
<path d="M97.8018 9.71191H109.902V20.3919H97.8018V9.71191Z" fill="white"/>
</mask>
<g mask="url(#mask0)">
<path d="M101.815 9.71139L102.997 11.4609C103.339 11.9608 103.668 12.4697 103.983 12.9868H104.044C104.36 12.3932 104.659 11.8987 104.967 11.3914L106.011 9.71094H109.861L105.984 14.7437L109.903 20.3914H105.923L104.74 18.5037C104.403 17.978 104.091 17.436 103.807 16.8796H103.746C103.45 17.4283 103.14 17.9699 102.818 18.5037L101.695 20.3909H97.8018L101.832 14.9032L97.9086 9.7123H101.815V9.71139Z" fill="#003299"/>
</g>
<mask id="mask1" mask-type="alpha" maskUnits="userSpaceOnUse" x="0" y="7" width="8" height="18">
<path d="M0 7.72681H7.02455V24.9686H0V7.72681Z" fill="white"/>
</mask>
<g mask="url(#mask1)">
<path d="M0 7.72681V19.2054C0 21.6054 4.22727 24.9691 7.02455 24.9691V13.49C7.02455 11.0895 2.79727 7.72681 0 7.72681Z" fill="#13DAFD"/>
</g>
<mask id="mask2" mask-type="alpha" maskUnits="userSpaceOnUse" x="10" y="0" width="8" height="18">
<path d="M10.3393 0.45459H17.3639V17.696H10.3389L10.3393 0.45459Z" fill="white"/>
</mask>
<g mask="url(#mask2)">
<path d="M10.3393 0.453613V11.9322C10.3393 14.3322 14.5666 17.6959 17.3639 17.6959V6.21679C17.3639 3.81634 13.1361 0.453613 10.3389 0.453613" fill="#003299"/>
</g>
</svg>
