<svg width="102" height="38" viewBox="0 0 102 38" fill="none" xmlns="http://www.w3.org/2000/svg">
<path d="M74.1912 18.9912C74.1912 18.5066 74.1912 18.0508 74.1755 17.6298C74.1648 17.2327 74.1255 16.8368 74.0578 16.4453C73.9945 16.0879 73.8828 15.7407 73.7258 15.4134C73.56 15.076 73.3384 14.7689 73.0704 14.5052C72.6902 14.1158 72.2379 13.8041 71.7386 13.5875C71.1985 13.3687 70.62 13.2602 70.0373 13.2685C69.4524 13.2609 68.8718 13.3694 68.3291 13.5875C67.8269 13.8011 67.3717 14.1115 66.9895 14.5009C66.722 14.7644 66.5012 15.0715 66.3367 15.4091C66.1809 15.7364 66.071 16.0836 66.0099 16.441C65.9437 16.8326 65.9059 17.2284 65.8966 17.6254C65.8861 18.0464 65.8809 18.5022 65.8835 18.9868C65.8861 19.4714 65.8835 19.9237 65.8966 20.3473C65.9059 20.7443 65.9437 21.1402 66.0099 21.5318C66.071 21.8891 66.1809 22.2363 66.3367 22.5637C66.5019 22.9008 66.7225 23.2078 66.9895 23.4719C67.3711 23.8616 67.8265 24.1715 68.3291 24.3835C68.8715 24.6031 69.4522 24.7121 70.0373 24.7042C70.6202 24.7128 71.1989 24.6037 71.7386 24.3835C72.238 24.1698 72.6905 23.8601 73.0704 23.4719C73.3378 23.2077 73.5593 22.9007 73.7258 22.5637C73.8828 22.2364 73.9945 21.8892 74.0578 21.5318C74.1247 21.1414 74.1635 20.7467 74.1737 20.3508C74.1868 19.9272 74.1929 19.474 74.1894 18.9903L74.1912 18.9912ZM71.9948 18.9912C71.9948 19.528 71.987 19.9752 71.9687 20.3308C71.9584 20.6228 71.9293 20.914 71.8815 21.2023C71.8489 21.3944 71.7902 21.5812 71.7072 21.7575C71.6399 21.8996 71.5517 22.0309 71.4458 22.1471C71.2822 22.3344 71.0792 22.4832 70.8514 22.5829C70.595 22.6926 70.3188 22.7483 70.0399 22.7467C69.7597 22.748 69.4822 22.6922 69.2242 22.5829C68.9908 22.485 68.7823 22.3361 68.6141 22.1471C68.5074 22.0314 68.4192 21.9 68.3526 21.7575C68.2719 21.581 68.2162 21.3942 68.187 21.2023C68.1405 20.9138 68.1114 20.6228 68.0998 20.3308C68.0842 19.9752 68.0763 19.5286 68.0763 18.9912C68.0763 18.4543 68.0842 18.0063 68.0998 17.6507C68.1114 17.3587 68.1405 17.0677 68.187 16.7791C68.2162 16.5873 68.2719 16.4004 68.3526 16.224C68.4194 16.0816 68.5076 15.9502 68.6141 15.8344C68.7825 15.6456 68.991 15.4967 69.2242 15.3986C69.4818 15.288 69.7596 15.2322 70.0399 15.2347C70.3189 15.2318 70.5954 15.2877 70.8514 15.3986C71.079 15.4986 71.2819 15.6473 71.4458 15.8344C71.5516 15.9507 71.6396 16.082 71.7072 16.224C71.7902 16.4003 71.8489 16.587 71.8815 16.7791C71.9292 17.0675 71.9584 17.3586 71.9687 17.6507C71.9879 18.0054 71.9948 18.4534 71.9948 18.9912Z" fill="#23AF91"/>
<path d="M91.6922 13.5596C91.6912 13.4536 91.6055 13.3679 91.4996 13.3669H89.6876C89.5814 13.3674 89.4954 13.4534 89.495 13.5596V20.2531L85.0762 13.421C85.0465 13.3748 85.0204 13.3669 84.955 13.3669H83.2746C83.1689 13.3684 83.0834 13.4538 83.082 13.5596V24.4209C83.0834 24.5266 83.169 24.6117 83.2746 24.6127H85.0857C85.1914 24.6122 85.277 24.5266 85.2775 24.4209V17.7099L89.6972 24.5578C89.7277 24.604 89.7521 24.6118 89.8183 24.6118H91.4978C91.6037 24.6113 91.6895 24.5259 91.6904 24.4201L91.6922 13.5596Z" fill="#23AF91"/>
<path d="M79.547 13.5596C79.5465 13.4534 79.4606 13.3674 79.3544 13.3669H77.5442C77.438 13.3674 77.352 13.4534 77.3516 13.5596V24.4201C77.352 24.5262 77.438 24.6122 77.5442 24.6127H79.3544C79.4606 24.6122 79.5465 24.5262 79.547 24.4201V13.5596Z" fill="#23AF91"/>
<path d="M57.8763 18.991C57.8763 18.4506 57.8824 18.0009 57.898 17.6427C57.9087 17.3506 57.9378 17.0595 57.9852 16.7712C58.1525 15.8037 58.8934 15.2328 59.839 15.2328C60.4561 15.2381 61.0156 15.4664 61.373 15.9859C61.5348 16.2284 61.6528 16.4974 61.7216 16.7807C61.7269 16.8106 61.7541 16.8314 61.7843 16.8287H63.9153C63.9458 16.8287 63.9571 16.8078 63.9519 16.7781C63.7192 15.4595 63.0158 14.275 61.773 13.6884C61.1622 13.4056 60.4955 13.2641 59.8225 13.2745C58.6226 13.2745 57.6119 13.6852 56.7903 14.5068C56.3212 14.964 56.0011 15.5521 55.8717 16.1942C55.7462 16.8263 55.6828 17.7583 55.6817 18.9901C55.6805 20.2219 55.7438 21.1536 55.8717 21.7852C56 22.4282 56.3192 23.0174 56.7877 23.4761C57.6087 24.2971 58.6194 24.7076 59.8198 24.7076C60.4928 24.7178 61.1594 24.5766 61.7704 24.2945C63.0132 23.7079 63.7166 22.5234 63.9493 21.2048C63.9545 21.1743 63.9432 21.1542 63.9127 21.1542H61.7808C61.7505 21.1511 61.723 21.1721 61.7181 21.2022C61.6491 21.4851 61.5311 21.7539 61.3695 21.9962C61.0121 22.5191 60.4526 22.7448 59.8355 22.7492C58.8899 22.7492 58.1491 22.1792 57.9817 21.2117C57.9344 20.9233 57.9053 20.6323 57.8946 20.3402C57.8824 19.9802 57.8763 19.5296 57.8763 18.991Z" fill="#23AF91"/>
<path d="M35.3693 13.5596C35.3688 13.4534 35.2828 13.3674 35.1767 13.3669H33.3664C33.2603 13.3674 33.1743 13.4534 33.1738 13.5596V24.4209C33.1748 24.5268 33.2606 24.6122 33.3664 24.6128H35.1767C35.2825 24.6122 35.3683 24.5268 35.3693 24.4209V21.2328L36.8222 19.4957L39.8064 24.5552C39.8294 24.5925 39.8707 24.6145 39.9145 24.6128H42.1143C42.2154 24.6128 42.2337 24.5499 42.1831 24.4636L38.2759 17.8398L41.8607 13.5395C41.933 13.4524 41.9025 13.3696 41.7892 13.3696H39.3846C39.3553 13.3678 39.3271 13.3809 39.3096 13.4044L35.3693 18.13V13.5596Z" fill="#23AF91"/>
<path d="M48.5581 22.7493C47.5392 22.7493 46.6154 21.8063 46.6154 20.6802V13.5596C46.6149 13.4534 46.5289 13.3674 46.4228 13.3669H44.6125C44.5064 13.3674 44.4204 13.4534 44.4199 13.5596V20.6523C44.4199 23.1319 46.2746 24.7077 48.5581 24.7077C50.8416 24.7077 52.6963 23.1319 52.6963 20.6523V13.5596C52.6953 13.4536 52.6096 13.3679 52.5036 13.3669H50.6925C50.5867 13.3679 50.5013 13.4537 50.5008 13.5596V20.6802C50.5008 21.8054 49.5761 22.7493 48.5581 22.7493Z" fill="#23AF91"/>
<path fill-rule="evenodd" clip-rule="evenodd" d="M14.9769 18.9913L20.5967 24.612L24.1439 21.0648C24.7782 20.4937 25.7486 20.5191 26.3522 21.1226C26.9557 21.7261 26.9811 22.6965 26.41 23.3308L21.7289 28.0129C21.1001 28.6312 20.0916 28.6312 19.4628 28.0129L12.7091 21.2574V25.2727C12.7091 26.1588 11.9907 26.8772 11.1045 26.8772C10.2184 26.8772 9.5 26.1588 9.5 25.2727V12.7048C9.5 11.8186 10.2184 11.1002 11.1045 11.1002C11.9907 11.1002 12.7091 11.8186 12.7091 12.7048V16.7201L19.4619 9.96634C20.0905 9.34748 21.0994 9.34748 21.728 9.96634L26.4126 14.6475C26.9837 15.2818 26.9583 16.2522 26.3548 16.8557C25.7513 17.4593 24.7809 17.4847 24.1466 16.9135L20.5993 13.3663L14.9769 18.9913ZM20.5993 17.3851C19.9495 17.3847 19.3636 17.7758 19.1147 18.376C18.8658 18.9762 19.003 19.6673 19.4623 20.1268C19.9216 20.5864 20.6126 20.724 21.2129 20.4754C21.8133 20.2269 22.2047 19.6411 22.2047 18.9913C22.205 18.5653 22.0359 18.1567 21.7349 17.8553C21.4338 17.5539 21.0253 17.3844 20.5993 17.3842V17.3851Z" fill="#23AF91"/>
</svg>
