<svg width="24" height="24" viewBox="0 0 24 24" fill="none" xmlns="http://www.w3.org/2000/svg">
<rect width="24" height="24" rx="4" fill="url(#paint0_linear)"/>
<path d="M5.72445 15.8251V9.82405L10.2753 13.2491V15.8251H11.4369V13.0073C11.4367 12.9026 11.4122 12.7994 11.3654 12.7057C11.3185 12.6121 11.2506 12.5305 11.167 12.4676L5.64795 8.31233C5.547 8.23735 5.42724 8.19183 5.30198 8.18083C5.17672 8.16983 5.05086 8.19378 4.93839 8.25001C4.82592 8.30625 4.73124 8.39257 4.66489 8.49938C4.59853 8.60619 4.56309 8.72931 4.5625 8.85505V15.8251H5.72445ZM18.3104 15.8251V9.82405L13.7595 13.2491V15.8251H12.598V13.0073C12.5982 12.9026 12.6227 12.7994 12.6695 12.7057C12.7163 12.6121 12.7842 12.5305 12.8678 12.4676L18.3869 8.31403C18.4877 8.23913 18.6073 8.19363 18.7324 8.18256C18.8576 8.17149 18.9833 8.19529 19.0957 8.25132C19.2081 8.30735 19.3028 8.39342 19.3693 8.49999C19.4358 8.60656 19.4714 8.72945 19.4723 8.85505V15.8251H18.3104Z" fill="white"/>
<defs>
<linearGradient id="paint0_linear" x1="12" y1="0" x2="12" y2="24" gradientUnits="userSpaceOnUse">
<stop stop-color="#4FA89B"/>
<stop offset="1" stop-color="#6ACEBB"/>
</linearGradient>
</defs>
</svg>
