<svg width="24" height="24" viewBox="0 0 24 24" fill="none" xmlns="http://www.w3.org/2000/svg">
<rect width="24" height="24" rx="4" fill="url(#paint0_linear)"/>
<path d="M8.37722 9.38982C8.27665 9.26497 8.12406 9.19561 7.96106 9.19561H4.60057C4.57283 9.19561 4.54855 9.1852 4.52774 9.16787C4.5104 9.15052 4.5 9.12972 4.5 9.10544V6.84084C4.5 6.81656 4.5104 6.79576 4.52774 6.77842C4.54855 6.75761 4.57283 6.7472 4.60057 6.75067H8.1518C9.04654 6.75067 9.81991 7.11828 10.4719 7.85003L11.3354 8.9043L9.65344 10.9539L8.37722 9.38982ZM14.5849 7.83962C15.2334 7.11481 16.0103 6.75067 16.9154 6.75067H20.4562C20.4805 6.7472 20.5048 6.75761 20.5221 6.77148C20.5395 6.78882 20.5464 6.8131 20.5429 6.84084V9.10544C20.5429 9.12972 20.536 9.15052 20.5221 9.16787C20.5048 9.18867 20.4805 9.19908 20.4562 9.19561H17.0958C16.9362 9.19214 16.7836 9.26497 16.6796 9.38982L14.2035 12.4035L16.69 15.438C16.7906 15.5524 16.9397 15.6218 17.0923 15.6183H20.4528C20.4771 15.6149 20.5048 15.6287 20.5187 15.6461C20.5325 15.6669 20.5429 15.6946 20.5395 15.7189V17.9835C20.5395 18.0078 20.5325 18.0286 20.5187 18.0459C20.5013 18.0667 20.4771 18.0771 20.4528 18.0737H16.9154C16.0103 18.0737 15.2404 17.7061 14.5953 16.9743L12.5353 14.46L10.4754 16.9743C9.82684 17.7061 9.05001 18.0737 8.14486 18.0737H4.60057C4.5763 18.0771 4.54855 18.0633 4.53468 18.0459C4.51734 18.0251 4.5104 17.9974 4.51387 17.9731V15.7085C4.51387 15.6842 4.52081 15.6634 4.53468 15.6461C4.55202 15.6253 4.5763 15.6149 4.60057 15.6183H7.96106C8.12059 15.6183 8.27318 15.5455 8.37722 15.4241L10.8083 12.4555L14.5849 7.83962Z" fill="#00D1FF"/>
<defs>
<linearGradient id="paint0_linear" x1="12.0017" y1="-6.94598e-05" x2="12.0017" y2="6.35054" gradientUnits="userSpaceOnUse">
<stop stop-color="#090220"/>
<stop offset="1" stop-color="#170659"/>
</linearGradient>
</defs>
</svg>
