<svg width="24" height="24" viewBox="0 0 24 24" fill="none" xmlns="http://www.w3.org/2000/svg">
<rect width="24" height="24" rx="4" fill="#F7EDF3"/>
<path fill-rule="evenodd" clip-rule="evenodd" d="M4.17948 2.53708C6.34354 5.20011 9.67787 9.34053 9.84505 9.56637C9.98436 9.75457 9.92864 9.93336 9.69644 10.0651C9.56641 10.1404 9.29707 10.2157 9.16704 10.2157C9.01843 10.2157 8.84196 10.1404 8.72122 10.018C8.63763 9.93336 8.27541 9.39699 7.45808 8.10781C6.8358 7.11976 6.30639 6.30109 6.2971 6.29168C6.25995 6.27286 6.25995 6.27286 7.39306 8.32424C8.10823 9.61342 8.34042 10.0745 8.34042 10.131C8.34042 10.2533 8.30327 10.3192 8.15466 10.4885C7.90389 10.7708 7.79244 11.0908 7.70885 11.7589C7.61597 12.5023 7.3652 13.0293 6.65004 13.9232C6.23209 14.4502 6.16707 14.5443 6.06491 14.7607C5.93488 15.0242 5.89773 15.1747 5.87915 15.5135C5.86057 15.8711 5.89773 16.0969 5.99989 16.4357C6.09277 16.7368 6.19494 16.9344 6.44571 17.3202C6.65933 17.659 6.78936 17.9131 6.78936 18.0072C6.78936 18.0824 6.80793 18.0824 7.14229 18.0072C7.94105 17.819 8.60048 17.499 8.96271 17.1038C9.18561 16.8591 9.24134 16.7274 9.24134 16.3886C9.24134 16.1722 9.23205 16.1252 9.17632 15.9934C9.08345 15.7864 8.90698 15.617 8.52618 15.3535C8.02464 15.0054 7.81102 14.7231 7.75529 14.3467C7.70885 14.0267 7.76458 13.8103 8.04321 13.2175C8.33113 12.6058 8.40544 12.3517 8.45188 11.7307C8.47974 11.3355 8.52618 11.1755 8.63763 11.0532C8.75837 10.9214 8.86054 10.8744 9.14846 10.8367C9.62214 10.7708 9.92864 10.6485 10.1701 10.4133C10.3837 10.2157 10.4766 10.018 10.4859 9.72634L10.4952 9.50991L10.3745 9.37817C9.93793 8.87002 3.89156 2.13245 3.86369 2.13245C3.85802 2.13245 3.91126 2.19916 3.99378 2.30256L3.99379 2.30256L3.9938 2.30257C4.04636 2.36844 4.11081 2.4492 4.17948 2.53708ZM7.03084 15.9181C7.13301 15.7393 7.07728 15.5135 6.9101 15.4006C6.7522 15.2971 6.51072 15.3441 6.51072 15.4853C6.51072 15.5229 6.5293 15.5606 6.58502 15.5794C6.66861 15.6264 6.6779 15.6735 6.61289 15.777C6.54787 15.8805 6.54787 15.9746 6.63146 16.0405C6.76149 16.144 6.93796 16.0875 7.03084 15.9181ZM9.99395 6.28221C9.79891 6.25398 9.78962 6.24457 9.8825 6.23516C10.059 6.20693 10.4676 6.24457 10.7556 6.31044C11.4243 6.47042 12.028 6.88446 12.6688 7.60903L12.836 7.80664L13.0775 7.769C14.1085 7.59962 15.1673 7.73136 16.0496 8.1454C16.2911 8.25832 16.6719 8.48416 16.7183 8.54062C16.7369 8.55944 16.7648 8.68177 16.7833 8.8041C16.8484 9.24638 16.8205 9.57573 16.6812 9.8298C16.6069 9.97095 16.6069 10.0086 16.6533 10.1309C16.6905 10.225 16.8019 10.2909 16.9041 10.2909C17.127 10.2909 17.3592 9.93331 17.4706 9.43458L17.5171 9.23697L17.6007 9.33107C18.0744 9.86744 18.4459 10.6108 18.5016 11.1378L18.5202 11.2789L18.4366 11.1566C18.2973 10.9402 18.1672 10.799 17.9908 10.6767C17.675 10.4603 17.3406 10.3944 16.4583 10.3473C15.6595 10.3003 15.2044 10.2344 14.7586 10.0839C13.997 9.8298 13.6069 9.50045 12.706 8.28655C12.3066 7.75018 12.0558 7.45847 11.8051 7.21381C11.2571 6.67744 10.7091 6.39513 9.99395 6.28221ZM16.9134 7.47735C16.9319 7.11977 16.9784 6.88452 17.0805 6.66809C17.1177 6.5834 17.1549 6.50812 17.1641 6.50812C17.1734 6.50812 17.1549 6.57399 17.127 6.64927C17.0527 6.85629 17.0434 7.148 17.0898 7.47735C17.1548 7.90081 17.1827 7.95727 17.6285 8.41836C17.8329 8.63479 18.0743 8.90768 18.1672 9.0206L18.3251 9.22762L18.1672 9.07706C17.9722 8.88886 17.5264 8.53128 17.4242 8.48423C17.3592 8.44659 17.3499 8.44659 17.3035 8.49364C17.2663 8.53128 17.257 8.58774 17.257 8.86063C17.2477 9.28408 17.192 9.54756 17.0527 9.82045C16.9784 9.9616 16.9691 9.93337 17.0341 9.7734C17.0805 9.65107 17.0898 9.59461 17.0898 9.18998C17.0898 8.37131 16.997 8.1737 16.4304 7.84435C16.2911 7.75965 16.0496 7.63732 15.9103 7.57145C15.7617 7.50558 15.6502 7.44912 15.6595 7.44912C15.6781 7.4303 16.2261 7.59027 16.4397 7.68437C16.7648 7.81612 16.8205 7.82553 16.8576 7.81612C16.8855 7.78789 16.9041 7.7126 16.9134 7.47735ZM9.78963 6.85634C9.7339 7.48681 9.98467 8.33371 10.3748 8.87949C10.6813 9.30294 11.1549 9.63229 11.5079 9.66993C11.7401 9.68875 11.8051 9.61347 11.7029 9.46291C11.5543 9.25589 11.3778 8.92654 11.3314 8.78539C11.3035 8.7007 11.2385 8.43722 11.1921 8.21138C11.0342 7.43976 10.867 7.12923 10.4955 6.90339C10.3562 6.8187 10.0683 6.70578 9.90108 6.67755L9.8082 6.65873L9.78963 6.85634ZM16.4397 12.9728C14.6007 12.22 13.9506 11.5707 13.9506 10.4697C13.9506 10.3098 13.9599 10.178 13.9599 10.178C13.966 10.178 13.997 10.2031 14.0417 10.2393L14.0417 10.2394L14.0418 10.2394C14.0641 10.2575 14.0899 10.2784 14.1178 10.3003C14.4893 10.6015 14.9072 10.7332 16.0682 10.9026C16.7462 11.0061 17.1363 11.0814 17.4892 11.2037C18.613 11.5801 19.3096 12.3517 19.4768 13.3962C19.5233 13.6974 19.4954 14.2714 19.4211 14.5725C19.3561 14.8077 19.1703 15.2406 19.1239 15.25C19.1146 15.25 19.096 15.203 19.096 15.1277C19.0774 14.7325 18.8824 14.3561 18.5573 14.0644C18.1672 13.7256 17.6657 13.4715 16.4397 12.9728ZM15.0465 12.888C15.0744 12.9633 15.1208 13.1421 15.1394 13.2833C15.288 14.1678 14.8329 14.8924 13.9134 15.1841C13.8205 15.2217 13.449 15.297 13.0868 15.3535C12.3531 15.4852 12.0187 15.5699 11.6936 15.7299C11.4614 15.8428 11.1735 16.0122 11.1921 16.031C11.2014 16.0404 11.2571 16.0216 11.3128 16.0028C11.7308 15.8522 12.1952 15.7769 12.8918 15.7393C13.1247 15.7236 13.3837 15.7012 13.5274 15.6888L13.5278 15.6888L13.5279 15.6888L13.5976 15.6828C14.2199 15.5981 14.6564 15.4099 14.9908 15.0618C15.1766 14.8642 15.288 14.6854 15.3809 14.4313C15.4366 14.2713 15.4459 14.2055 15.4459 13.9232C15.4459 13.6314 15.4459 13.575 15.3809 13.3962C15.2973 13.1609 15.2044 12.9916 15.0837 12.8504L15.0001 12.7469L15.0465 12.888ZM15.9846 14.7983C15.7431 14.2619 15.6874 13.7538 15.8174 13.2739C15.836 13.2268 15.8546 13.1798 15.8732 13.1798C15.8917 13.1798 15.9475 13.208 16.0032 13.2456C16.1146 13.3209 16.3468 13.4527 16.9413 13.782C17.6936 14.196 18.1208 14.516 18.418 14.883C18.6781 15.2029 18.836 15.5699 18.9103 16.0216C18.9567 16.2757 18.9289 16.8873 18.8638 17.1414C18.6595 17.9412 18.1951 18.5811 17.5171 18.9481C17.4149 19.0046 17.3314 19.0422 17.3221 19.0422C17.3128 19.0422 17.3499 18.9481 17.4057 18.8352C17.6286 18.3553 17.6564 17.8942 17.4892 17.3766C17.3871 17.0567 17.1735 16.6709 16.7462 16.0216C16.2354 15.2688 16.1146 15.0712 15.9846 14.7983ZM11.3779 16.5486C10.5977 16.6803 9.75249 17.0944 9.06519 17.6778L8.87015 17.866L9.04661 17.8942C9.9754 18.0354 10.2262 18.1671 10.8763 18.8446C11.2478 19.2304 11.3779 19.3151 11.6844 19.3998C12.1395 19.5222 12.5853 19.3057 12.7432 18.8917C12.8082 18.7035 12.7989 18.4024 12.7246 18.2518C12.5388 17.8848 11.9909 17.7719 11.7308 18.0354C11.5172 18.2518 11.5822 18.5906 11.8515 18.647C11.9073 18.6564 11.9073 18.6564 11.833 18.6188C11.7122 18.5623 11.6565 18.4871 11.6565 18.3647C11.6472 18.073 11.9723 17.9224 12.2695 18.0542C12.4924 18.1577 12.576 18.2894 12.576 18.5153C12.576 18.8635 12.2788 19.1363 11.9351 19.0893C11.7494 19.0611 11.5265 18.9481 11.4057 18.807C11.1085 18.4682 11.22 17.913 11.6472 17.706C11.9723 17.546 12.3995 17.5931 12.7339 17.8095C13.1147 18.0636 13.2819 18.2894 13.6069 19.0517C13.7184 19.3057 13.8484 19.5786 13.9134 19.6727C14.2199 20.1432 14.6007 20.3785 15.0465 20.3785C15.2973 20.3785 15.4831 20.3408 15.7153 20.2185C15.8824 20.1338 16.1332 19.9644 16.1146 19.9456C16.1146 19.9382 16.0685 19.9542 16.008 19.9751L15.9567 19.9927C15.4645 20.1809 14.963 20.1714 14.675 19.955C14.4893 19.8139 14.3407 19.5504 14.2664 19.2116L14.2573 19.158C14.2396 19.0546 14.2035 18.843 14.1735 18.6376C14.0713 17.9883 13.9692 17.6966 13.7462 17.3578C13.5141 17.0097 13.0682 16.7274 12.576 16.5956C12.2695 16.5109 11.7122 16.4921 11.3779 16.5486ZM10.2912 11.5236C10.3562 11.2789 10.5698 11.0343 10.7927 10.9684C10.9413 10.9214 11.2293 10.9496 11.3686 11.0249C11.6379 11.166 11.833 11.4766 11.7865 11.7024C11.7401 11.9753 11.3036 12.2011 10.7927 12.2011C10.5327 12.2011 10.4398 12.1635 10.3376 12.0317C10.2726 11.9471 10.254 11.6742 10.2912 11.5236ZM11.2943 11.119C11.4336 11.2037 11.4615 11.326 11.3871 11.4389C11.3314 11.5142 11.1642 11.5895 11.0435 11.5895C10.8577 11.5895 10.6627 11.4577 10.6627 11.3354C10.6627 11.0907 11.0435 10.959 11.2943 11.119Z" fill="#FF007A"/>
</svg>
